<svg width="24" height="24" viewBox="0 0 24 24" fill="none" xmlns="http://www.w3.org/2000/svg">
<path fill-rule="evenodd" clip-rule="evenodd" d="M8.64996 20.5C7.80988 20.5 7.38985 20.5 7.06898 20.3365C6.78674 20.1927 6.55727 19.9632 6.41346 19.681C6.24997 19.3601 6.24997 18.9401 6.24997 18.1V5.89902C6.24997 5.05894 6.24997 4.63891 6.41346 4.31804C6.55727 4.03579 6.78674 3.80632 7.06898 3.66251C7.38985 3.49902 7.80988 3.49902 8.64996 3.49902H11.9395C15.1565 3.49902 17.2933 5.26017 17.2933 7.86667C17.2933 9.6513 16.2836 10.8958 14.4755 11.4594V11.5533C16.8354 12.0817 18.1622 13.5258 18.1622 15.6862C18.1622 18.5745 15.814 20.5 12.3152 20.5H8.64996ZM12.3387 18.5745C14.6868 18.5745 16.0488 17.4473 16.0488 15.5453C16.0488 13.6432 14.6164 12.5161 12.1508 12.5161H8.31638V18.5745H12.3387ZM11.7751 10.6375C13.9354 10.6375 15.18 9.67479 15.18 8.03105C15.18 6.38731 14.0059 5.42455 11.9629 5.42455H8.31638V10.6375H11.7751Z" fill="#505866"/>
</svg>
