<svg width="24" height="24" viewBox="0 0 24 24" fill="none" xmlns="http://www.w3.org/2000/svg">
<path d="M12.9006 8.0001C12.9006 7.50304 12.4977 7.1001 12.0006 7.1001C11.5035 7.1001 11.1006 7.50304 11.1006 8.0001V11.1001H8.00062C7.50356 11.1001 7.10062 11.503 7.10062 12.0001C7.10062 12.4972 7.50356 12.9001 8.00062 12.9001H11.1006V16.0001C11.1006 16.4972 11.5035 16.9001 12.0006 16.9001C12.4977 16.9001 12.9006 16.4972 12.9006 16.0001V12.9001H16.0006C16.4976 12.9001 16.9006 12.4972 16.9006 12.0001C16.9006 11.503 16.4976 11.1001 16.0006 11.1001H12.9006V8.0001Z" fill="#505866"/>
<path fill-rule="evenodd" clip-rule="evenodd" d="M12.0002 2.34998C6.67064 2.34998 2.3502 6.67043 2.3502 12C2.3502 17.3295 6.67064 21.65 12.0002 21.65C13.5385 21.65 14.9949 21.2894 16.2873 20.6475L18.0997 21.1418C18.5099 21.2537 18.8758 21.3535 19.1764 21.4066C19.4809 21.4604 19.867 21.497 20.2527 21.3498C20.7579 21.1569 21.157 20.7578 21.3499 20.2525C21.4972 19.8668 21.4605 19.4808 21.4068 19.1762C21.3537 18.8757 21.2539 18.5098 21.142 18.0997L20.6477 16.2871C21.2895 14.9947 21.6501 13.5383 21.6501 12C21.6501 6.67043 17.3297 2.34998 12.0002 2.34998ZM4.15026 12.0001C4.15026 7.66463 7.66481 4.15007 12.0002 4.15007C16.3356 4.15007 19.8502 7.66463 19.8502 12.0001C19.8502 13.3613 19.5045 14.6392 18.8967 15.7533C18.7854 15.9574 18.7573 16.1967 18.8185 16.4211L19.6715 19.5485C19.6784 19.5741 19.6763 19.5898 19.6731 19.6008C19.6692 19.6145 19.6605 19.6307 19.6457 19.6456C19.6308 19.6604 19.6146 19.6691 19.6009 19.673C19.5899 19.6761 19.5742 19.6783 19.5487 19.6713L16.4212 18.8184C16.1969 18.7572 15.9576 18.7852 15.7534 18.8966C14.6393 19.5043 13.3615 19.8501 12.0002 19.8501C7.66481 19.8501 4.15026 16.3355 4.15026 12.0001Z" fill="#505866"/>
</svg>
