<svg width="24" height="24" viewBox="0 0 24 24" fill="none" xmlns="http://www.w3.org/2000/svg">
<path fill-rule="evenodd" clip-rule="evenodd" d="M6.17917 8.84055C3.25193 9.63935 1.10006 12.3173 1.10006 15.4978C1.10006 16.4295 1.2852 17.3199 1.62128 18.1327L0.991963 20.4402C0.93875 20.6352 0.883835 20.8364 0.853597 21.0076C0.822724 21.1825 0.786613 21.4751 0.90476 21.7845C1.04691 22.1568 1.34098 22.4509 1.71328 22.5931C2.02271 22.7112 2.31532 22.6751 2.49018 22.6442C2.66142 22.614 2.86258 22.5591 3.05751 22.5059L5.36507 21.8765C6.17792 22.2126 7.06834 22.3978 8.00003 22.3978C10.7757 22.3978 13.1686 20.7588 14.2637 18.3959C14.3422 18.398 14.4209 18.3991 14.4999 18.3991C15.8099 18.3991 17.0519 18.0986 18.1588 17.5623L19.8877 18.0338C20.2111 18.1221 20.5109 18.2039 20.7597 18.2478C21.0123 18.2924 21.361 18.3288 21.7162 18.1932C22.1683 18.0206 22.5254 17.6635 22.698 17.2114C22.8336 16.8563 22.7971 16.5076 22.7525 16.2549C22.7086 16.0061 22.6268 15.7063 22.5386 15.3829L22.0663 13.6513C22.6006 12.5461 22.8999 11.3064 22.8999 9.99913C22.8999 5.35993 19.1391 1.59912 14.4999 1.59912C10.2538 1.59912 6.74354 4.74962 6.17917 8.84055ZM8.04896 8.59793C11.8372 8.62424 14.9 11.7033 14.9 15.4978C14.9 15.8701 14.8705 16.2355 14.8138 16.5918C15.8315 16.5443 16.787 16.2667 17.6316 15.8105C17.8351 15.7006 18.073 15.6732 18.2961 15.734L20.3257 16.2875C20.6136 16.3661 20.8096 16.419 20.9565 16.4517C20.9237 16.3049 20.8708 16.1089 20.7923 15.821L20.2382 13.7891C20.1774 13.5663 20.2046 13.3286 20.3142 13.1253C20.8152 12.1957 21.0999 11.132 21.0999 9.99913C21.0999 6.35404 18.145 3.39912 14.4999 3.39912C11.3356 3.39912 8.69147 5.62591 8.04896 8.59793ZM13.1 15.4978C13.1 12.6811 10.8167 10.3978 8.00003 10.3978C5.18339 10.3978 2.90005 12.6811 2.90005 15.4978C2.90005 16.2789 3.07506 17.0167 3.38716 17.6762C3.47901 17.8703 3.49844 18.0908 3.44194 18.298L2.78275 20.7151L5.19979 20.0559C5.40695 19.9994 5.62749 20.0188 5.82158 20.1106C6.48109 20.4228 7.21887 20.5978 8.00003 20.5978C10.8167 20.5978 13.1 18.3144 13.1 15.4978Z" fill="#505866"/>
</svg>
