<svg width="24" height="24" viewBox="0 0 24 24" fill="none" xmlns="http://www.w3.org/2000/svg">
<path fill-rule="evenodd" clip-rule="evenodd" d="M11.5364 4.5364C11.8879 4.18492 11.8879 3.61508 11.5364 3.2636C11.1849 2.91213 10.6151 2.91213 10.2636 3.2636L2.2636 11.2636C1.91213 11.6151 1.91213 12.1849 2.2636 12.5364L10.2636 20.5364C10.6151 20.8879 11.1849 20.8879 11.5364 20.5364C11.8879 20.1849 11.8879 19.6151 11.5364 19.2636L4.17279 11.9L11.5364 4.5364ZM21.0364 4.53679C21.3879 4.18531 21.3879 3.61547 21.0364 3.26399C20.6849 2.91252 20.1151 2.91252 19.7636 3.26399L11.7636 11.264C11.4122 11.6155 11.4122 12.1853 11.7636 12.5368L19.7636 20.5368C20.1151 20.8883 20.6849 20.8883 21.0364 20.5368C21.3879 20.1853 21.3879 19.6155 21.0364 19.264L13.6728 11.9004L21.0364 4.53679Z" fill="#505866"/>
</svg>
