<svg width="24" height="24" viewBox="0 0 24 24" fill="none" xmlns="http://www.w3.org/2000/svg">
<path d="M16.6466 9.87591C16.9923 9.51876 16.983 8.94899 16.6258 8.60329C16.2687 8.25759 15.6989 8.26688 15.3532 8.62404L10.6773 13.455L8.64746 11.3522C8.30225 10.9946 7.73249 10.9845 7.37487 11.3297C7.01724 11.6749 7.00718 12.2447 7.35239 12.6023L10.0288 15.375C10.1983 15.5506 10.4318 15.6498 10.6758 15.65C10.9198 15.6501 11.1534 15.5512 11.3231 15.3759L16.6466 9.87591Z" fill="#505866"/>
<path fill-rule="evenodd" clip-rule="evenodd" d="M11.9999 2.09998C6.53231 2.09998 2.09995 6.53236 2.09995 12C2.09995 17.4676 6.53231 21.9 11.9999 21.9C17.4675 21.9 21.8999 17.4676 21.8999 12C21.8999 6.53236 17.4675 2.09998 11.9999 2.09998ZM3.89994 12C3.89994 7.52647 7.52642 3.89998 11.9999 3.89998C16.4734 3.89998 20.0999 7.52647 20.0999 12C20.0999 16.4735 16.4734 20.1 11.9999 20.1C7.52642 20.1 3.89994 16.4735 3.89994 12Z" fill="#505866"/>
</svg>
