<svg width="24" height="24" viewBox="0 0 24 24" fill="none" xmlns="http://www.w3.org/2000/svg">
<path fill-rule="evenodd" clip-rule="evenodd" d="M2.09995 12C2.09995 6.53236 6.5323 2.09998 11.9999 2.09998C17.4675 2.09998 21.8999 6.53236 21.8999 12C21.8999 17.4676 17.4675 21.9 11.9999 21.9C6.5323 21.9 2.09995 17.4676 2.09995 12ZM12.8999 7.74988C12.8999 7.25282 12.497 6.84988 11.9999 6.84988C11.5029 6.84988 11.0999 7.25282 11.0999 7.74988V11.0999H7.74995C7.25289 11.0999 6.84995 11.5028 6.84995 11.9999C6.84995 12.4969 7.25289 12.8999 7.74995 12.8999H11.0999V16.2499C11.0999 16.7469 11.5029 17.1499 11.9999 17.1499C12.497 17.1499 12.8999 16.7469 12.8999 16.2499V12.8999H16.2499C16.747 12.8999 17.1499 12.4969 17.1499 11.9999C17.1499 11.5028 16.747 11.0999 16.2499 11.0999H12.8999V7.74988Z" fill="#505866"/>
</svg>
