<svg width="24" height="24" viewBox="0 0 24 24" fill="none" xmlns="http://www.w3.org/2000/svg">
<path d="M12.9999 15.9999C12.9999 16.5522 12.5522 16.9999 11.9999 16.9999C11.4476 16.9999 10.9999 16.5522 10.9999 15.9999C10.9999 15.4476 11.4476 14.9999 11.9999 14.9999C12.5522 14.9999 12.9999 15.4476 12.9999 15.9999Z" fill="#505866"/>
<path d="M12.9 7.99988C12.9 7.50282 12.4971 7.09988 12 7.09988C11.5029 7.09988 11.1 7.50282 11.1 7.99988V12.4999C11.1 12.9969 11.5029 13.3999 12 13.3999C12.4971 13.3999 12.9 12.9969 12.9 12.4999V7.99988Z" fill="#505866"/>
<path fill-rule="evenodd" clip-rule="evenodd" d="M2.09995 12C2.09995 6.53236 6.53231 2.09998 11.9999 2.09998C17.4675 2.09998 21.8999 6.53236 21.8999 12C21.8999 17.4676 17.4675 21.9 11.9999 21.9C6.53231 21.9 2.09995 17.4676 2.09995 12ZM11.9999 3.89998C7.52642 3.89998 3.89994 7.52647 3.89994 12C3.89994 16.4735 7.52642 20.1 11.9999 20.1C16.4734 20.1 20.0999 16.4735 20.0999 12C20.0999 7.52647 16.4734 3.89998 11.9999 3.89998Z" fill="#505866"/>
</svg>
