<svg width="24" height="24" viewBox="0 0 24 24" fill="none" xmlns="http://www.w3.org/2000/svg">
<path d="M12.8999 7.99988C12.8999 7.50282 12.497 7.09988 11.9999 7.09988C11.5029 7.09988 11.0999 7.50282 11.0999 7.99988V11.0999H7.99995C7.5029 11.0999 7.09996 11.5028 7.09996 11.9999C7.09996 12.4969 7.5029 12.8999 7.99995 12.8999H11.0999V15.9999C11.0999 16.4969 11.5029 16.8999 11.9999 16.8999C12.497 16.8999 12.8999 16.4969 12.8999 15.9999V12.8999H15.9999C16.497 12.8999 16.8999 12.4969 16.8999 11.9999C16.8999 11.5028 16.497 11.0999 15.9999 11.0999H12.8999V7.99988Z" fill="#505866"/>
<path fill-rule="evenodd" clip-rule="evenodd" d="M11.9999 2.09998C6.53231 2.09998 2.09995 6.53236 2.09995 12C2.09995 17.4676 6.53231 21.9 11.9999 21.9C17.4675 21.9 21.8999 17.4676 21.8999 12C21.8999 6.53236 17.4675 2.09998 11.9999 2.09998ZM3.89994 12C3.89994 7.52647 7.52642 3.89998 11.9999 3.89998C16.4734 3.89998 20.0999 7.52647 20.0999 12C20.0999 16.4735 16.4734 20.1 11.9999 20.1C7.52642 20.1 3.89994 16.4735 3.89994 12Z" fill="#505866"/>
</svg>
