<svg width="24" height="24" viewBox="0 0 24 24" fill="none" xmlns="http://www.w3.org/2000/svg">
<path d="M12.9999 7.99988C12.9999 8.55216 12.5522 8.99988 11.9999 8.99988C11.4476 8.99988 10.9999 8.55216 10.9999 7.99988C10.9999 7.44759 11.4476 6.99988 11.9999 6.99988C12.5522 6.99988 12.9999 7.44759 12.9999 7.99988Z" fill="#505866"/>
<path d="M12.9 11.4999C12.9 11.0028 12.497 10.5999 12 10.5999C11.5029 10.5999 11.1 11.0028 11.1 11.4999V15.9999C11.1 16.4969 11.5029 16.8999 12 16.8999C12.497 16.8999 12.9 16.4969 12.9 15.9999V11.4999Z" fill="#505866"/>
<path fill-rule="evenodd" clip-rule="evenodd" d="M2.09995 12C2.09995 6.53236 6.5323 2.09998 11.9999 2.09998C17.4675 2.09998 21.8999 6.53236 21.8999 12C21.8999 17.4676 17.4675 21.9 11.9999 21.9C6.5323 21.9 2.09995 17.4676 2.09995 12ZM11.9999 3.89998C7.52641 3.89998 3.89994 7.52647 3.89994 12C3.89994 16.4735 7.52641 20.1 11.9999 20.1C16.4734 20.1 20.0999 16.4735 20.0999 12C20.0999 7.52647 16.4734 3.89998 11.9999 3.89998Z" fill="#505866"/>
</svg>
