<svg width="24" height="24" viewBox="0 0 24 24" fill="none" xmlns="http://www.w3.org/2000/svg">
<path fill-rule="evenodd" clip-rule="evenodd" d="M2.09995 12C2.09995 6.53236 6.53231 2.09998 11.9999 2.09998C17.4675 2.09998 21.8999 6.53236 21.8999 12C21.8999 17.4676 17.4675 21.9 11.9999 21.9C6.53231 21.9 2.09995 17.4676 2.09995 12ZM16.6466 9.87581C16.9923 9.51866 16.983 8.94889 16.6258 8.60319C16.2687 8.2575 15.6989 8.26679 15.3532 8.62394L10.6773 13.4549L8.64748 11.3521C8.30227 10.9945 7.73251 10.9844 7.37489 11.3296C7.01727 11.6748 7.0072 12.2446 7.35241 12.6022L10.0289 15.3749C10.1983 15.5505 10.4318 15.6497 10.6758 15.6499C10.9198 15.65 11.1534 15.5511 11.3231 15.3758L16.6466 9.87581Z" fill="#505866"/>
</svg>
