<svg width="24" height="24" viewBox="0 0 24 24" fill="none" xmlns="http://www.w3.org/2000/svg">
<path fill-rule="evenodd" clip-rule="evenodd" d="M2.0999 12.0001C2.0999 6.53248 6.53226 2.1001 11.9999 2.1001C17.4674 2.1001 21.8998 6.53248 21.8998 12.0001C21.8998 17.4677 17.4674 21.9001 11.9999 21.9001C6.53226 21.9001 2.0999 17.4677 2.0999 12.0001ZM11.1097 13.1165C11.0128 13.6409 11.4601 14.08 11.9934 14.08C12.5259 14.08 12.9298 13.6328 13.1103 13.1319C13.3451 12.4807 13.8168 12.0841 14.2873 11.6886C14.9461 11.1348 15.6024 10.5831 15.6024 9.3375C15.6024 7.41467 14.0444 6.28226 12.0608 6.28226C10.2581 6.28226 8.89849 7.23259 8.50114 8.77528C8.36807 9.29189 8.81581 9.7327 9.34928 9.7327C9.88138 9.7327 10.2723 9.27237 10.519 8.80092C10.7842 8.2941 11.2942 8.00492 11.9848 7.99988C12.9348 8.00748 13.596 8.55469 13.596 9.4135C13.596 10.1105 13.1589 10.4457 12.6453 10.8397C12.0476 11.2982 11.3463 11.8362 11.1097 13.1165ZM10.7687 16.4664C10.7611 17.1504 11.2779 17.652 12 17.652C12.7068 17.652 13.2236 17.1504 13.2312 16.4664C13.2236 15.7824 12.7068 15.2808 12 15.2808C11.2779 15.2808 10.7611 15.7824 10.7687 16.4664Z" fill="#505866"/>
</svg>
