<svg width="24" height="24" viewBox="0 0 24 24" fill="none" xmlns="http://www.w3.org/2000/svg">
<path fill-rule="evenodd" clip-rule="evenodd" d="M5.86674 2.09961C5.47529 2.09959 5.12872 2.09958 4.84159 2.12304C4.53581 2.14802 4.21896 2.20403 3.9105 2.3612C3.45892 2.59129 3.09177 2.95845 2.86167 3.41004C2.70451 3.71849 2.6485 4.03534 2.62351 4.34113C2.60005 4.62825 2.60007 4.9747 2.60008 5.36615L2.60009 21.8996H14.4789L14.5 21.8999L14.5212 21.8996H14.6V17.7496C14.6 17.2526 15.003 16.8496 15.5 16.8496C15.9971 16.8496 16.4 17.2526 16.4 17.7496V21.8996H21.4V13.3663C21.4 12.9748 21.4 12.6283 21.3766 12.3411C21.3516 12.0353 21.2956 11.7185 21.1384 11.41C20.9083 10.9584 20.5412 10.5913 20.0896 10.3612C19.7811 10.204 19.4643 10.148 19.1585 10.123C18.8714 10.0996 18.5249 10.0996 18.1334 10.0996L15.4 10.0996L15.4 5.36628C15.4 4.97481 15.4001 4.62826 15.3766 4.34113C15.3516 4.03534 15.2956 3.71849 15.1384 3.41004C14.9083 2.95845 14.5412 2.59129 14.0896 2.3612C13.7812 2.20403 13.4643 2.14802 13.1585 2.12304C12.8714 2.09958 12.525 2.09959 12.1335 2.09961H5.86674ZM7.00005 10.0997C6.50299 10.0997 6.10005 10.5027 6.10005 10.9997C6.10005 11.4968 6.50299 11.8997 7.00005 11.8997H11C11.4971 11.8997 11.9 11.4968 11.9 10.9997C11.9 10.5027 11.4971 10.0997 11 10.0997H7.00005ZM7.00005 6.09971C6.50299 6.09971 6.10005 6.50266 6.10005 6.99971C6.10005 7.49677 6.50299 7.89971 7.00005 7.89971H11C11.4971 7.89971 11.9 7.49677 11.9 6.99971C11.9 6.50266 11.4971 6.09971 11 6.09971H7.00005Z" fill="#505866"/>
<path d="M23.1362 4.63639C23.4877 4.28492 23.4877 3.71507 23.1362 3.3636C22.7848 3.01213 22.2149 3.01214 21.8634 3.36361L19.4999 5.72725L18.3863 4.61365C18.0348 4.26218 17.4649 4.26218 17.1135 4.61365C16.762 4.96513 16.762 5.53497 17.1135 5.88645L18.8635 7.63645C19.0322 7.80523 19.2612 7.90005 19.4999 7.90005C19.7386 7.90005 19.9675 7.80523 20.1363 7.63644L23.1362 4.63639Z" fill="#505866"/>
</svg>
