<svg width="24" height="24" viewBox="0 0 24 24" fill="none" xmlns="http://www.w3.org/2000/svg">
<path d="M7.00011 10.0997C6.50305 10.0997 6.10011 10.5027 6.10011 10.9997C6.10011 11.4968 6.50305 11.8997 7.00011 11.8997H11.0001C11.4971 11.8997 11.9001 11.4968 11.9001 10.9997C11.9001 10.5027 11.4971 10.0997 11.0001 10.0997H7.00011Z" fill="#505866"/>
<path d="M7.00011 6.09971C6.50305 6.09971 6.10011 6.50266 6.10011 6.99971C6.10011 7.49677 6.50305 7.89971 7.00011 7.89971H11.0001C11.4971 7.89971 11.9001 7.49677 11.9001 6.99971C11.9001 6.50266 11.4971 6.09971 11.0001 6.09971H7.00011Z" fill="#505866"/>
<path fill-rule="evenodd" clip-rule="evenodd" d="M5.8668 2.09961H12.1334C12.5249 2.09959 12.8715 2.09958 13.1586 2.12304C13.4644 2.14802 13.7812 2.20403 14.0897 2.3612C14.5413 2.59129 14.9084 2.95845 15.1385 3.41004C15.2957 3.71849 15.3517 4.03534 15.3767 4.34113C15.4001 4.62826 15.4001 4.97471 15.4001 5.36618L15.4001 10.0996L18.1334 10.0996C18.5249 10.0996 18.8714 10.0996 19.1586 10.123C19.4643 10.148 19.7812 10.204 20.0897 10.3612C20.5412 10.5913 20.9084 10.9584 21.1385 11.41C21.2957 11.7185 21.3517 12.0353 21.3766 12.3411C21.4001 12.6283 21.4001 12.9747 21.4001 13.3662V21.8996H14.5213L14.5001 21.8999L14.4789 21.8996H9.0136L9.0001 21.8997L8.9866 21.8996H2.60015L2.60014 5.36628C2.60013 4.97481 2.60011 4.62826 2.62357 4.34113C2.64856 4.03534 2.70457 3.71849 2.86173 3.41004C3.09183 2.95845 3.45898 2.59129 3.91057 2.3612C4.21902 2.20403 4.53587 2.14802 4.84165 2.12304C5.12878 2.09958 5.47535 2.09959 5.8668 2.09961ZM13.6001 20.0996H9.9001V16.9997C9.9001 16.5027 9.49715 16.0997 9.0001 16.0997C8.50305 16.0997 8.1001 16.5027 8.1001 16.9997V20.0996H4.40017V5.09956C4.40017 4.47113 4.41128 4.37036 4.42954 4.31415C4.48889 4.13149 4.6321 3.98828 4.81476 3.92893C4.87097 3.91066 4.97174 3.89956 5.60017 3.89956H12.4001C13.0286 3.89956 13.1293 3.91066 13.1855 3.92893C13.3682 3.98828 13.5114 4.13149 13.5708 4.31415C13.589 4.37036 13.6001 4.47113 13.6001 5.09956V20.0996ZM15.4001 20.0996H19.6001V13.0996C19.6001 12.4711 19.589 12.3704 19.5707 12.3141C19.5114 12.1315 19.3682 11.9883 19.1855 11.9289C19.1293 11.9107 19.0285 11.8996 18.4001 11.8996H15.4001V20.0996Z" fill="#505866"/>
<path d="M23.1363 4.63645C23.4878 4.28498 23.4878 3.71513 23.1363 3.36366C22.7848 3.01219 22.215 3.0122 21.8635 3.36367L19.4999 5.72731L18.3863 4.61371C18.0349 4.26224 17.465 4.26224 17.1136 4.61371C16.7621 4.96519 16.7621 5.53503 17.1136 5.88651L18.8635 7.63651C19.0323 7.80529 19.2612 7.90011 19.4999 7.90011C19.7386 7.90011 19.9676 7.80529 20.1363 7.6365L23.1363 4.63645Z" fill="#505866"/>
</svg>
