<svg width="24" height="24" viewBox="0 0 24 24" fill="none" xmlns="http://www.w3.org/2000/svg">
<path d="M7.85025 13.4994C7.85025 13.0023 8.25319 12.5994 8.75025 12.5994H12.7502C13.2473 12.5994 13.6502 13.0023 13.6502 13.4994C13.6502 13.9964 13.2473 14.3994 12.7502 14.3994H8.75025C8.25319 14.3994 7.85025 13.9964 7.85025 13.4994Z" fill="#505866"/>
<path d="M7.85025 16.9999C7.85025 16.5028 8.25319 16.0999 8.75025 16.0999H12.7502C13.2473 16.0999 13.6502 16.5028 13.6502 16.9999C13.6502 17.4969 13.2473 17.8999 12.7502 17.8999H8.75025C8.25319 17.8999 7.85025 17.4969 7.85025 16.9999Z" fill="#505866"/>
<path fill-rule="evenodd" clip-rule="evenodd" d="M13.2792 2.1525C13.0563 2.09897 12.8292 2.0995 12.6374 2.09993L12.5872 2.10001H7.91459C7.38472 2.1 6.93354 2.09998 6.56311 2.13025C6.17395 2.16205 5.79536 2.23168 5.43343 2.41609C4.88776 2.69413 4.44412 3.13777 4.16609 3.68344C3.98168 4.04537 3.91204 4.42397 3.88025 4.81313C3.84998 5.18354 3.84999 5.63469 3.85001 6.16453V17.8354C3.84999 18.3652 3.84998 18.8165 3.88025 19.1869C3.91204 19.5761 3.98168 19.9547 4.16609 20.3166C4.44412 20.8623 4.88776 21.3059 5.43343 21.5839C5.79536 21.7683 6.17395 21.838 6.56311 21.8698C6.93353 21.9 7.38469 21.9 7.91453 21.9H16.0854C16.6152 21.9 17.0664 21.9 17.4368 21.8698C17.826 21.838 18.2046 21.7683 18.5665 21.5839C19.1122 21.3059 19.5558 20.8623 19.8339 20.3166C20.0183 19.9547 20.0879 19.5761 20.1197 19.1869C20.15 18.8165 20.15 18.3653 20.1499 17.8355V9.66231L20.15 9.61213C20.1505 9.42025 20.151 9.19319 20.0974 8.97019C20.0509 8.77631 19.9741 8.59097 19.8699 8.42097C19.7501 8.22543 19.5892 8.06525 19.4532 7.92989L19.4176 7.89446L14.3549 2.83216L14.3195 2.79663C14.1841 2.66067 14.0239 2.49977 13.8284 2.37996C13.6584 2.2758 13.4731 2.19904 13.2792 2.1525ZM12.6003 3.90025C12.596 3.90025 12.5916 3.90025 12.5872 3.90025H7.94997C7.37507 3.90025 6.99802 3.90095 6.70967 3.92451C6.43182 3.94721 6.31648 3.98657 6.25059 4.02014C6.04361 4.1256 5.87534 4.29388 5.76988 4.50086C5.7363 4.56675 5.69694 4.68209 5.67424 4.95994C5.65068 5.24829 5.64998 5.62534 5.64998 6.20025V17.8002C5.64998 18.3752 5.65068 18.7522 5.67424 19.0406C5.69694 19.3184 5.7363 19.4337 5.76988 19.4996C5.87534 19.7066 6.04361 19.8749 6.25059 19.9804C6.31648 20.0139 6.43182 20.0533 6.70967 20.076C6.99802 20.0995 7.37507 20.1002 7.94997 20.1002H16.0499C16.6248 20.1002 17.0019 20.0995 17.2902 20.076C17.5681 20.0533 17.6834 20.0139 17.7493 19.9804C17.9563 19.8749 18.1246 19.7066 18.23 19.4996C18.2636 19.4337 18.303 19.3184 18.3257 19.0406C18.3492 18.7522 18.3499 18.3752 18.3499 17.8002V9.89996L15.0706 9.89996C14.8162 9.89999 14.5742 9.90001 14.3702 9.88335C14.1478 9.86517 13.8927 9.82279 13.6378 9.69287C13.2802 9.51071 12.9896 9.22005 12.8074 8.86254C12.6775 8.60756 12.6351 8.35245 12.617 8.13005C12.6003 7.9261 12.6003 7.68407 12.6003 7.42977L12.6003 3.90025ZM17.0772 8.09995L14.4003 5.42334V7.99995C14.4003 8.05518 14.4451 8.09995 14.5003 8.09995H17.0772Z" fill="#505866"/>
</svg>
