<svg width="24" height="24" viewBox="0 0 24 24" fill="none" xmlns="http://www.w3.org/2000/svg">
<path fill-rule="evenodd" clip-rule="evenodd" d="M12.6503 2.1001L12.6503 7.42879C12.6503 7.6841 12.6503 7.92426 12.6668 8.1261C12.6847 8.34542 12.7262 8.59322 12.852 8.83997C13.0293 9.18807 13.3124 9.47108 13.6604 9.64845C13.9072 9.77418 14.155 9.81572 14.3743 9.83364C14.5762 9.85013 14.8164 9.85011 15.0717 9.85009L20.1499 9.85009V17.8357C20.1499 18.3655 20.15 18.8167 20.1197 19.1871C20.0879 19.5763 20.0183 19.9548 19.8339 20.3168C19.5558 20.8624 19.1122 21.3061 18.5665 21.5841C18.2046 21.7685 17.826 21.8382 17.4368 21.87C17.0664 21.9002 16.6152 21.9002 16.0854 21.9002H7.91454C7.38471 21.9002 6.93351 21.9002 6.5631 21.87C6.17394 21.8382 5.79535 21.7685 5.43342 21.5841C4.88775 21.3061 4.44411 20.8624 4.16607 20.3168C3.98166 19.9548 3.91203 19.5763 3.88023 19.1871C3.84997 18.8167 3.84998 18.3655 3.84999 17.8356V6.16476C3.84998 5.63492 3.84997 5.18374 3.88023 4.81332C3.91203 4.42416 3.98166 4.04556 4.16607 3.68363C4.44411 3.13796 4.88775 2.69432 5.43342 2.41629C5.79535 2.23187 6.17394 2.16224 6.5631 2.13044C6.93353 2.10018 7.38471 2.10019 7.91458 2.1002L12.5872 2.1002L12.6503 2.1001ZM10.2498 12.0503C9.44896 12.0503 8.79977 12.6995 8.79977 13.5003C8.79977 14.3011 9.44896 14.9503 10.2498 14.9503C11.0506 14.9503 11.6998 14.3011 11.6998 13.5003C11.6998 12.6995 11.0506 12.0503 10.2498 12.0503ZM10.2498 15.8021C9.42531 15.8021 8.64661 15.998 8.05904 16.382C7.46301 16.7715 7.04978 17.3698 7.04978 18.129C7.04978 18.4455 7.30639 18.7021 7.62294 18.7021H12.8766C13.1931 18.7021 13.4498 18.4455 13.4498 18.129C13.4498 17.3698 13.0365 16.7715 12.4405 16.382C11.8529 15.998 11.0742 15.8021 10.2498 15.8021Z" fill="#505866"/>
<path d="M14.3503 2.82781V8.00047C14.3503 8.08332 14.4175 8.15047 14.5003 8.15047H19.6653L14.3503 2.82781Z" fill="#505866"/>
</svg>
