<svg width="24" height="24" viewBox="0 0 24 24" fill="none" xmlns="http://www.w3.org/2000/svg">
<path fill-rule="evenodd" clip-rule="evenodd" d="M13.2793 2.15299C13.0563 2.09946 12.8293 2.09998 12.6374 2.10042L12.5872 2.1005L7.91462 2.1005C7.38475 2.10048 6.93357 2.10047 6.56314 2.13074C6.17398 2.16253 5.79539 2.23217 5.43346 2.41658C4.88779 2.69461 4.44415 3.13826 4.16612 3.68393C3.98171 4.04586 3.91207 4.42445 3.88028 4.81362C3.85001 5.18403 3.85002 5.63518 3.85004 6.16502V17.8359C3.85002 18.3657 3.85001 18.817 3.88028 19.1874C3.91207 19.5765 3.98171 19.9551 4.16612 20.3171C4.44415 20.8627 4.88779 21.3064 5.43346 21.5844C5.79539 21.7688 6.17398 21.8385 6.56314 21.8703C6.93356 21.9005 7.38472 21.9005 7.91456 21.9005H16.0854C16.6152 21.9005 17.0665 21.9005 17.4369 21.8703C17.826 21.8385 18.2046 21.7688 18.5666 21.5844C19.1122 21.3064 19.5559 20.8627 19.8339 20.3171C20.0183 19.9551 20.0879 19.5765 20.1197 19.1874C20.15 18.817 20.15 18.3658 20.15 17.836V9.6628L20.1501 9.61262C20.1505 9.42074 20.151 9.19367 20.0975 8.97068C20.0509 8.7768 19.9741 8.59146 19.87 8.42145C19.7501 8.22591 19.5892 8.06574 19.4532 7.93038L19.4177 7.89495L14.3549 2.83265L14.3195 2.79712C14.1841 2.66115 14.024 2.50026 13.8284 2.38045C13.6585 2.27629 13.4731 2.19953 13.2793 2.15299ZM12.6004 3.90074C12.5961 3.90074 12.5917 3.90074 12.5872 3.90074H7.95C7.3751 3.90074 6.99805 3.90144 6.7097 3.925C6.43186 3.9477 6.31651 3.98706 6.25062 4.02063C6.04364 4.12609 5.87537 4.29437 5.76991 4.50135C5.73633 4.56724 5.69697 4.68258 5.67427 4.96043C5.65071 5.24878 5.65001 5.62583 5.65001 6.20074V17.8007C5.65001 18.3756 5.65071 18.7527 5.67427 19.041C5.69697 19.3189 5.73633 19.4342 5.76991 19.5001C5.87537 19.7071 6.04364 19.8754 6.25062 19.9808C6.31651 20.0144 6.43186 20.0538 6.7097 20.0765C6.99805 20.1 7.3751 20.1007 7.95 20.1007H16.05C16.6249 20.1007 17.0019 20.1 17.2903 20.0765C17.5681 20.0538 17.6835 20.0144 17.7494 19.9808C17.9563 19.8754 18.1246 19.7071 18.2301 19.5001C18.2636 19.4342 18.303 19.3189 18.3257 19.041C18.3493 18.7527 18.35 18.3756 18.35 17.8007V9.90045L15.0706 9.90045C14.8163 9.90047 14.5742 9.9005 14.3703 9.88383C14.1479 9.86566 13.8928 9.82328 13.6378 9.69336C13.2803 9.5112 12.9896 9.22054 12.8075 8.86303C12.6775 8.60805 12.6352 8.35294 12.617 8.13053C12.6003 7.92659 12.6003 7.68456 12.6004 7.43026L12.6004 3.90074ZM17.0772 8.10044L14.4004 5.42382V8.00044C14.4004 8.05567 14.4452 8.10044 14.5004 8.10044H17.0772Z" fill="#505866"/>
</svg>
