<svg width="24" height="24" viewBox="0 0 24 24" fill="none" xmlns="http://www.w3.org/2000/svg">
<path d="M10.7498 11.5505C9.94902 11.5505 9.29984 12.1997 9.29984 13.0005C9.29984 13.8013 9.94902 14.4505 10.7498 14.4505C11.5506 14.4505 12.1998 13.8013 12.1998 13.0005C12.1998 12.1997 11.5506 11.5505 10.7498 11.5505Z" fill="#505866"/>
<path d="M10.7498 15.3024C9.92538 15.3024 9.14667 15.4982 8.55911 15.8822C7.96307 16.2718 7.54984 16.87 7.54984 17.6292C7.54984 17.9458 7.80646 18.2024 8.12301 18.2024H13.3767C13.6932 18.2024 13.9498 17.9458 13.9498 17.6292C13.9498 16.87 13.5366 16.2718 12.9406 15.8822C12.353 15.4982 11.5743 15.3024 10.7498 15.3024Z" fill="#505866"/>
<path fill-rule="evenodd" clip-rule="evenodd" d="M12.6374 2.10042C12.8293 2.09998 13.0563 2.09946 13.2793 2.15299C13.4731 2.19953 13.6585 2.27629 13.8284 2.38045C14.024 2.50026 14.1841 2.66115 14.3195 2.79712L14.3549 2.83265L19.4177 7.89495L19.4532 7.93038C19.5892 8.06574 19.7501 8.22591 19.87 8.42145C19.9741 8.59146 20.0509 8.7768 20.0975 8.97068C20.151 9.19367 20.1505 9.42074 20.1501 9.61262L20.15 9.6628V17.836C20.15 18.3658 20.15 18.817 20.1197 19.1874C20.0879 19.5765 20.0183 19.9551 19.8339 20.3171C19.5559 20.8627 19.1122 21.3064 18.5666 21.5844C18.2046 21.7688 17.826 21.8385 17.4369 21.8703C17.0665 21.9005 16.6153 21.9005 16.0854 21.9005H7.91455C7.38472 21.9005 6.93354 21.9005 6.56313 21.8703C6.17397 21.8385 5.79538 21.7688 5.43345 21.5844C4.88778 21.3064 4.44414 20.8627 4.16611 20.3171C3.98169 19.9551 3.91206 19.5765 3.88026 19.1874C3.85 18.817 3.85001 18.3658 3.85002 17.8359V6.16502C3.85001 5.63519 3.85 5.18402 3.88026 4.81362C3.91206 4.42445 3.98169 4.04586 4.16611 3.68393C4.44414 3.13826 4.88778 2.69461 5.43345 2.41658C5.79538 2.23217 6.17397 2.16253 6.56313 2.13074C6.93356 2.10047 7.38474 2.10048 7.91461 2.1005L12.5872 2.1005L12.6374 2.10042ZM12.6004 3.90074L12.6004 7.43026C12.6003 7.68456 12.6003 7.92659 12.617 8.13053C12.6351 8.35294 12.6775 8.60805 12.8074 8.86303C12.9896 9.22054 13.2803 9.5112 13.6378 9.69336C13.8928 9.82328 14.1479 9.86566 14.3703 9.88383C14.5742 9.9005 14.8163 9.90047 15.0706 9.90045L18.35 9.90045V17.8007C18.35 18.3756 18.3493 18.7527 18.3257 19.041C18.303 19.3189 18.2636 19.4342 18.2301 19.5001C18.1246 19.7071 17.9563 19.8754 17.7494 19.9808C17.6835 20.0144 17.5681 20.0538 17.2903 20.0765C17.0019 20.1 16.6249 20.1007 16.05 20.1007H7.94999C7.37509 20.1007 6.99804 20.1 6.70969 20.0765C6.43184 20.0538 6.3165 20.0144 6.25061 19.9808C6.04363 19.8754 5.87535 19.7071 5.76989 19.5001C5.73632 19.4342 5.69696 19.3189 5.67426 19.041C5.6507 18.7527 5.65 18.3756 5.65 17.8007V6.20074C5.65 5.62583 5.6507 5.24878 5.67426 4.96043C5.69696 4.68258 5.73632 4.56724 5.76989 4.50135C5.87535 4.29437 6.04363 4.12609 6.25061 4.02063C6.3165 3.98706 6.43184 3.9477 6.70969 3.925C6.99804 3.90144 7.37509 3.90074 7.94999 3.90074L12.6004 3.90074ZM14.4004 5.42382L17.0772 8.10044H14.5004C14.4451 8.10044 14.4004 8.05567 14.4004 8.00044V5.42382Z" fill="#505866"/>
</svg>
