<svg width="24" height="24" viewBox="0 0 24 24" fill="none" xmlns="http://www.w3.org/2000/svg">
<path fill-rule="evenodd" clip-rule="evenodd" d="M2.09999 12.0001C2.09999 6.53248 6.53235 2.1001 12 2.1001C17.4676 2.1001 21.8999 6.53248 21.8999 12.0001C21.8999 17.4677 17.4676 21.9001 12 21.9001C6.53235 21.9001 2.09999 17.4677 2.09999 12.0001ZM9.99986 10.25C9.99986 10.9404 9.44022 11.5 8.74987 11.5C8.05951 11.5 7.49987 10.9404 7.49987 10.25C7.49987 9.55964 8.05951 9 8.74987 9C9.44022 9 9.99986 9.55964 9.99986 10.25ZM16.4998 10.25C16.4998 10.9404 15.9402 11.5 15.2498 11.5C14.5595 11.5 13.9998 10.9404 13.9998 10.25C13.9998 9.55964 14.5595 9 15.2498 9C15.9402 9 16.4998 9.55964 16.4998 10.25ZM9.31417 13.7993C9.06528 13.3691 8.51473 13.2221 8.08448 13.471C7.65422 13.7198 7.5072 14.2704 7.75609 14.7007C8.60196 16.1629 10.1852 17.15 12 17.15C13.8148 17.15 15.398 16.1629 16.2439 14.7007C16.4928 14.2704 16.3457 13.7198 15.9155 13.471C15.4852 13.2221 14.9347 13.3691 14.6858 13.7993C14.1484 14.7283 13.1463 15.35 12 15.35C10.8537 15.35 9.85153 14.7283 9.31417 13.7993Z" fill="#505866"/>
</svg>
