<svg width="24" height="24" viewBox="0 0 24 24" fill="none" xmlns="http://www.w3.org/2000/svg">
<path d="M5.91569 3.0979C5.36667 3.09788 4.89445 3.09786 4.52682 3.13071C4.1756 3.16209 3.71281 3.23453 3.34596 3.5423C2.88605 3.92814 2.63554 4.50864 2.67031 5.10796C2.69805 5.58602 2.96282 5.97243 3.18093 6.24951C3.40924 6.53953 3.73317 6.88308 4.10984 7.28254L9.59984 13.1053L9.59983 20.4959C9.59977 20.6035 9.5997 20.7378 9.61035 20.8542C9.62165 20.9776 9.65362 21.2194 9.81649 21.4522C10.0057 21.7227 10.2979 21.9033 10.6244 21.9516C10.9056 21.9931 11.1361 21.9136 11.2515 21.8685C11.3603 21.826 11.4804 21.7659 11.5767 21.7177L13.637 20.6875L13.6507 20.6809C13.712 20.6515 13.9055 20.5589 14.0571 20.4041C14.1816 20.277 14.2762 20.1239 14.3342 19.9557C14.4049 19.7509 14.4012 19.5364 14.4 19.4684L14.3998 19.4532V13.1053L19.8898 7.28256C20.2665 6.88309 20.5904 6.53954 20.8187 6.24951C21.0368 5.97243 21.3016 5.58602 21.3293 5.10796C21.3641 4.50864 21.1136 3.92814 20.6537 3.5423C20.2868 3.23453 19.8241 3.16209 19.4728 3.13071C19.1052 3.09786 18.633 3.09788 18.084 3.0979H5.91569Z" fill="#505866"/>
</svg>
