<svg width="24" height="24" viewBox="0 0 24 24" fill="none" xmlns="http://www.w3.org/2000/svg">
<path fill-rule="evenodd" clip-rule="evenodd" d="M7.69468 3.34988C8.04492 3.34965 8.34063 3.34945 8.6314 3.40912C8.88736 3.46166 9.13505 3.54854 9.36773 3.66742C9.63206 3.80246 9.86286 3.98735 10.1362 4.20633L11.5656 5.34991L17.8355 5.34991C18.3654 5.3499 18.8165 5.34988 19.187 5.38015C19.5761 5.41195 19.9547 5.48158 20.3166 5.66599C20.8623 5.94403 21.306 6.38767 21.584 6.93334C21.7684 7.29527 21.838 7.67387 21.8698 8.06303C21.9001 8.43345 21.9001 8.88464 21.9001 9.41449V16.5853C21.9001 17.1152 21.9001 17.5664 21.8698 17.9368C21.838 18.326 21.7684 18.7046 21.584 19.0665C21.306 19.6122 20.8623 20.0558 20.3166 20.3338C19.9547 20.5182 19.5761 20.5879 19.187 20.6197C18.8165 20.6499 18.3654 20.6499 17.8355 20.6499H6.16471C5.63486 20.6499 5.18367 20.6499 4.81325 20.6197C4.42409 20.5879 4.0455 20.5182 3.68357 20.3338C3.1379 20.0558 2.69426 19.6122 2.41623 19.0665C2.23181 18.7046 2.16218 18.326 2.13038 17.9368C2.10012 17.5664 2.10013 17.1152 2.10014 16.5853V7.41448C2.10013 6.88464 2.10012 6.43345 2.13038 6.06303C2.16218 5.67387 2.23181 5.29527 2.41623 4.93334C2.69426 4.38767 3.1379 3.94403 3.68357 3.66599C4.0455 3.48158 4.42409 3.41195 4.81325 3.38015C5.18368 3.34988 5.63486 3.3499 6.16473 3.34991L7.69468 3.34988ZM8.74973 10.5505C7.94892 10.5505 7.29974 11.1997 7.29974 12.0005C7.29974 12.8013 7.94892 13.4505 8.74973 13.4505C9.55054 13.4505 10.1997 12.8013 10.1997 12.0005C10.1997 11.1997 9.55054 10.5505 8.74973 10.5505ZM8.74973 14.3024C7.92528 14.3024 7.14658 14.4982 6.55901 14.8822C5.96298 15.2718 5.54975 15.87 5.54975 16.6292C5.54975 16.9458 5.80636 17.2024 6.12291 17.2024H11.3766C11.6931 17.2024 11.9497 16.9458 11.9497 16.6292C11.9497 15.87 11.5365 15.2718 10.9405 14.8822C10.3529 14.4982 9.57418 14.3024 8.74973 14.3024Z" fill="#505866"/>
</svg>
