<svg width="24" height="24" viewBox="0 0 24 24" fill="none" xmlns="http://www.w3.org/2000/svg">
<path d="M9.24979 10.0503C8.44898 10.0503 7.7998 10.6995 7.7998 11.5003C7.7998 12.3011 8.44898 12.9503 9.24979 12.9503C10.0506 12.9503 10.6998 12.3011 10.6998 11.5003C10.6998 10.6995 10.0506 10.0503 9.24979 10.0503Z" fill="#505866"/>
<path d="M9.24979 13.8021C8.42534 13.8021 7.64664 13.998 7.05907 14.382C6.46304 14.7715 6.04981 15.3698 6.04981 16.129C6.04981 16.4455 6.30642 16.7021 6.62297 16.7021H11.8766C12.1932 16.7021 12.4498 16.4455 12.4498 16.129C12.4498 15.3698 12.0365 14.7715 11.4405 14.382C10.8529 13.998 10.0742 13.8021 9.24979 13.8021Z" fill="#505866"/>
<path fill-rule="evenodd" clip-rule="evenodd" d="M8.63146 3.40937C8.34069 3.34969 8.04498 3.34989 7.69474 3.35013L6.16479 3.35016C5.63492 3.35014 5.18374 3.35013 4.81331 3.38039C4.42415 3.41219 4.04556 3.48182 3.68363 3.66624C3.13796 3.94427 2.69432 4.38791 2.41629 4.93358C2.23187 5.29552 2.16224 5.67411 2.13044 6.06327C2.10018 6.43369 2.10019 6.88491 2.10021 7.41475V16.5856C2.10019 17.1155 2.10018 17.5666 2.13044 17.937C2.16224 18.3262 2.23187 18.7048 2.41629 19.0667C2.69432 19.6124 3.13796 20.056 3.68363 20.3341C4.04556 20.5185 4.42415 20.5881 4.81331 20.6199C5.18373 20.6502 5.63492 20.6502 6.16477 20.6502H17.8356C18.3654 20.6502 18.8166 20.6502 19.187 20.6199C19.5762 20.5881 19.9548 20.5185 20.3167 20.3341C20.8624 20.056 21.306 19.6124 21.5841 19.0667C21.7685 18.7048 21.8381 18.3262 21.8699 17.937C21.9002 17.5666 21.9001 17.1154 21.9001 16.5856V9.41471C21.9001 8.88487 21.9002 8.43369 21.8699 8.06327C21.8381 7.67411 21.7685 7.29552 21.5841 6.93358C21.306 6.38791 20.8624 5.94427 20.3167 5.66624C19.9548 5.48182 19.5762 5.41219 19.187 5.38039C18.8166 5.35013 18.3654 5.35014 17.8355 5.35016L11.5657 5.35016L10.1363 4.20657C9.86292 3.98759 9.63213 3.8027 9.3678 3.66766C9.13511 3.54878 8.88742 3.4619 8.63146 3.40937ZM4.6603 5.2039C4.79182 5.16116 4.98566 5.15006 5.80022 5.15006H7.76784C8.0689 5.15006 8.13672 5.15195 8.19646 5.16006C8.34405 5.1801 8.48604 5.22991 8.61382 5.30646C8.66553 5.33745 8.71967 5.37834 8.95476 5.56641L10.6878 6.95284C10.8474 7.08051 11.0456 7.15006 11.25 7.15006H18.2002C19.0147 7.15006 19.2086 7.16116 19.3401 7.2039C19.675 7.31271 19.9375 7.57526 20.0463 7.91014C20.0891 8.04166 20.1002 8.2355 20.1002 9.05006V16.9501C20.1002 17.7646 20.0891 17.9585 20.0463 18.09C19.9375 18.4249 19.675 18.6874 19.3401 18.7962C19.2086 18.839 19.0147 18.8501 18.2002 18.8501H5.80022C4.98566 18.8501 4.79182 18.839 4.6603 18.7962C4.32542 18.6874 4.06287 18.4249 3.95406 18.09C3.91133 17.9585 3.90022 17.7646 3.90022 16.9501V7.05006C3.90022 6.2355 3.91133 6.04166 3.95406 5.91014C4.06287 5.57526 4.32542 5.31271 4.6603 5.2039Z" fill="#505866"/>
</svg>
