<svg width="24" height="24" viewBox="0 0 24 24" fill="none" xmlns="http://www.w3.org/2000/svg">
<path d="M8.63142 3.40912C8.34065 3.34945 8.04494 3.34965 7.6947 3.34988L6.16475 3.34991C5.63488 3.3499 5.1837 3.34988 4.81327 3.38015C4.42411 3.41195 4.04552 3.48158 3.68358 3.66599C3.13792 3.94403 2.69427 4.38767 2.41624 4.93334C2.23183 5.29527 2.16219 5.67387 2.1304 6.06303C2.10013 6.43345 2.10015 6.88462 2.10016 7.41448V16.5853C2.10015 17.1152 2.10013 17.5664 2.1304 17.9368C2.16219 18.326 2.23183 18.7046 2.41624 19.0665C2.69427 19.6122 3.13792 20.0558 3.68358 20.3338C4.04552 20.5182 4.42411 20.5879 4.81327 20.6197C5.18369 20.6499 5.63487 20.6499 6.16472 20.6499H17.8355C18.3654 20.6499 18.8166 20.6499 19.187 20.6197C19.5762 20.5879 19.9547 20.5182 20.3167 20.3338C20.8623 20.0558 21.306 19.6122 21.584 19.0665C21.7684 18.7046 21.8381 18.326 21.8699 17.9368C21.9001 17.5664 21.9001 17.1152 21.9001 16.5853V9.41451C21.9001 8.88465 21.9001 8.43345 21.8699 8.06303C21.8381 7.67387 21.7684 7.29527 21.584 6.93334C21.306 6.38767 20.8623 5.94403 20.3167 5.66599C19.9547 5.48158 19.5762 5.41195 19.187 5.38015C18.8166 5.34988 18.3654 5.3499 17.8355 5.34991L11.5657 5.34991L10.1362 4.20633C9.86288 3.98735 9.63209 3.80246 9.36776 3.66742C9.13507 3.54854 8.88738 3.46166 8.63142 3.40912Z" fill="#505866"/>
</svg>
