<svg width="24" height="24" viewBox="0 0 24 24" fill="none" xmlns="http://www.w3.org/2000/svg">
<path d="M11.9997 2.1001C11.5027 2.1001 11.0997 2.50304 11.0997 3.0001C11.0997 3.49715 11.5027 3.9001 11.9997 3.9001C16.4732 3.9001 20.0997 7.52659 20.0997 12.0001C20.0997 16.4736 16.4732 20.1001 11.9997 20.1001C7.52625 20.1001 3.89977 16.4736 3.89977 12.0001C3.89977 11.503 3.49683 11.1001 2.99977 11.1001C2.50272 11.1001 2.09978 11.503 2.09978 12.0001C2.09978 17.4677 6.53214 21.9001 11.9997 21.9001C17.4673 21.9001 21.8997 17.4677 21.8997 12.0001C21.8997 6.53248 17.4673 2.1001 11.9997 2.1001Z" fill="#505866"/>
<path d="M9.47837 3.29992C9.68993 3.81008 9.44786 4.39515 8.9377 4.6067C8.42755 4.81826 7.84247 4.57619 7.63092 4.06603C7.41937 3.55587 7.66143 2.97081 8.17159 2.75925C8.68175 2.5477 9.26682 2.78976 9.47837 3.29992Z" fill="#505866"/>
<path d="M6.3429 4.92898C6.73342 5.31951 6.73342 5.95267 6.3429 6.3432C5.95237 6.73372 5.3192 6.73373 4.92868 6.3432C4.53816 5.95268 4.53816 5.31951 4.92868 4.92899C5.3192 4.53847 5.95237 4.53846 6.3429 4.92898Z" fill="#505866"/>
<path d="M4.06574 7.63123C4.57589 7.84279 4.81796 8.42785 4.60641 8.93801C4.39485 9.44817 3.80979 9.69025 3.29963 9.47869C2.78947 9.26714 2.5474 8.68207 2.75896 8.17191C2.97051 7.66175 3.55558 7.41968 4.06574 7.63123Z" fill="#505866"/>
<path d="M11.4997 6.6001C11.9968 6.6001 12.3997 7.00304 12.3997 7.5001V12.1274L14.6109 14.3386C14.9623 14.69 14.9623 15.2599 14.6109 15.6114C14.2594 15.9628 13.6896 15.9628 13.3381 15.6114L10.8632 13.1365C10.6837 12.957 10.5959 12.7205 10.5997 12.4852V7.5001C10.5997 7.00304 11.0027 6.6001 11.4997 6.6001Z" fill="#505866"/>
</svg>
