<svg width="24" height="24" viewBox="0 0 24 24" fill="none" xmlns="http://www.w3.org/2000/svg">
<path d="M9.78591 3.83413C10.1558 2.93586 11.0312 2.34961 12.0026 2.34961C13.3266 2.34961 14.3999 3.42291 14.3999 4.74689V9.09961L17.6027 9.09961C18.2201 9.09959 18.7408 9.09958 19.163 9.13615C19.6023 9.17421 20.0306 9.25765 20.4258 9.48454C21.0143 9.82233 21.4656 10.3557 21.7014 10.992C21.8597 11.4193 21.8712 11.8555 21.836 12.2951C21.8022 12.7175 21.716 13.231 21.6138 13.8399L20.8303 18.5096C20.7552 18.9572 20.6907 19.3415 20.6131 19.6565C20.5309 19.9898 20.42 20.3086 20.2211 20.6073C19.918 21.0623 19.4925 21.4224 18.9936 21.646C18.6662 21.7927 18.3334 21.8493 17.9911 21.8752C17.6675 21.8996 17.2778 21.8996 16.8239 21.8996H6.89992V10.843L9.78591 3.83413Z" fill="#505866"/>
<path d="M5.09993 10.8496L3.77783 10.8496C3.65759 10.8496 3.51928 10.8495 3.39825 10.8594C3.25921 10.8708 3.06585 10.8995 2.86435 11.0022C2.60092 11.1364 2.38675 11.3506 2.25253 11.614C2.14986 11.8155 2.1211 12.0089 2.10974 12.1479C2.09985 12.269 2.0999 12.4073 2.09993 12.5275V20.2217C2.0999 20.342 2.09985 20.4803 2.10974 20.6013C2.1211 20.7403 2.14986 20.9337 2.25253 21.1352C2.38675 21.3986 2.60092 21.6128 2.86435 21.747C3.06585 21.8497 3.25921 21.8784 3.39825 21.8898C3.51926 21.8997 3.65754 21.8997 3.77776 21.8996L5.09993 21.8996V10.8496Z" fill="#505866"/>
</svg>
