<svg width="24" height="24" viewBox="0 0 24 24" fill="none" xmlns="http://www.w3.org/2000/svg">
<path d="M3.74968 7C4.44003 7 4.99967 6.44036 4.99967 5.75C4.99967 5.05964 4.44003 4.5 3.74968 4.5C3.05932 4.5 2.49968 5.05964 2.49968 5.75C2.49968 6.44036 3.05932 7 3.74968 7Z" fill="#505866"/>
<path d="M7.34979 5.75C7.34979 5.25294 7.75273 4.85 8.24978 4.85H20.2497C20.7468 4.85 21.1497 5.25294 21.1497 5.75C21.1497 6.24706 20.7468 6.65 20.2497 6.65H8.24978C7.75273 6.65 7.34979 6.24706 7.34979 5.75Z" fill="#505866"/>
<path d="M3.74968 13.25C4.44003 13.25 4.99967 12.6904 4.99967 12C4.99967 11.3096 4.44003 10.75 3.74968 10.75C3.05932 10.75 2.49968 11.3096 2.49968 12C2.49968 12.6904 3.05932 13.25 3.74968 13.25Z" fill="#505866"/>
<path d="M7.34979 12C7.34979 11.5029 7.75273 11.1 8.24978 11.1H20.2497C20.7468 11.1 21.1497 11.5029 21.1497 12C21.1497 12.4971 20.7468 12.9 20.2497 12.9H8.24978C7.75273 12.9 7.34979 12.4971 7.34979 12Z" fill="#505866"/>
<path d="M3.74968 19.5C4.44003 19.5 4.99967 18.9404 4.99967 18.25C4.99967 17.5596 4.44003 17 3.74968 17C3.05932 17 2.49968 17.5596 2.49968 18.25C2.49968 18.9404 3.05932 19.5 3.74968 19.5Z" fill="#505866"/>
<path d="M8.24978 17.35C7.75273 17.35 7.34979 17.7529 7.34979 18.25C7.34979 18.7471 7.75273 19.15 8.24978 19.15H20.2497C20.7468 19.15 21.1497 18.7471 21.1497 18.25C21.1497 17.7529 20.7468 17.35 20.2497 17.35H8.24978Z" fill="#505866"/>
</svg>
