<svg width="24" height="24" viewBox="0 0 24 24" fill="none" xmlns="http://www.w3.org/2000/svg">
<path fill-rule="evenodd" clip-rule="evenodd" d="M16.4026 18.8796C15.4297 19.9049 14.4598 20.7426 13.7342 21.3236C13.3347 21.6435 12.9279 21.9581 12.504 22.2456C12.2035 22.4483 11.794 22.4475 11.4938 22.2444C11.0706 21.9571 10.6644 21.6431 10.2654 21.3236C9.53985 20.7426 8.56997 19.9049 7.59698 18.8796C5.69093 16.8709 3.59984 13.9624 3.59984 10.7496C3.59984 6.11042 7.36064 2.34961 11.9998 2.34961C16.639 2.34961 20.3998 6.11042 20.3998 10.7496C20.3998 13.9624 18.3087 16.8709 16.4026 18.8796ZM11.9998 4.14941C8.35475 4.14941 5.39984 7.10433 5.39984 10.7494C5.39984 13.2305 7.05873 15.6972 8.90267 17.6403C10.1141 18.917 11.3359 19.8935 11.9998 20.3906C12.6638 19.8935 13.8855 18.917 15.097 17.6403C16.9409 15.6972 18.5998 13.2305 18.5998 10.7494C18.5998 7.10433 15.6449 4.14941 11.9998 4.14941Z" fill="#505866"/>
<path fill-rule="evenodd" clip-rule="evenodd" d="M12 7.09961C9.98412 7.09961 8.34996 8.73377 8.34996 10.7496C8.34996 12.7654 9.98412 14.3996 12 14.3996C14.0158 14.3996 15.6499 12.7654 15.6499 10.7496C15.6499 8.73377 14.0158 7.09961 12 7.09961ZM10.15 10.7496C10.15 9.72788 10.9782 8.89961 12 8.89961C13.0217 8.89961 13.8499 9.72788 13.8499 10.7496C13.8499 11.7713 13.0217 12.5996 12 12.5996C10.9782 12.5996 10.15 11.7713 10.15 10.7496Z" fill="#505866"/>
</svg>
