<svg width="24" height="24" viewBox="0 0 24 24" fill="none" xmlns="http://www.w3.org/2000/svg">
<path d="M18.3009 6.84771C18.3009 7.49176 17.7856 8.007 17.1416 8.007C16.4975 8.007 15.9823 7.49176 15.9823 6.84771C15.9823 6.20366 16.4975 5.68842 17.1416 5.68842C17.7856 5.68842 18.3009 6.20366 18.3009 6.84771ZM21.6499 12.0001C21.6499 14.6192 21.6392 14.952 21.5962 15.9825C21.5533 17.013 21.3816 17.7107 21.1454 18.3225C20.8985 18.9558 20.5658 19.4925 20.0291 20.0293C19.4923 20.566 18.9556 20.8987 18.3223 21.1456C17.7105 21.3818 17.002 21.5428 15.9823 21.5964C14.9518 21.6394 14.6191 21.6501 11.9999 21.6501C9.38081 21.6501 9.04805 21.6394 8.01757 21.5964C6.9871 21.5535 6.28938 21.3818 5.67754 21.1456C5.04422 20.8987 4.50752 20.566 3.97081 20.0293C3.43411 19.4925 3.10135 18.9558 2.85446 18.3225C2.61831 17.7107 2.4573 17.0022 2.40363 15.9825C2.36069 14.952 2.34996 14.6192 2.34996 12.0001C2.34996 9.38097 2.36069 9.04821 2.40363 8.01773C2.44657 6.98725 2.61831 6.28953 2.85446 5.67769C3.10135 5.04437 3.43411 4.50766 3.97081 3.97096C4.50752 3.43425 5.04422 3.10149 5.67754 2.8546C6.28938 2.61845 6.99783 2.45744 8.01757 2.40377C9.04805 2.36083 9.38081 2.3501 11.9999 2.3501C14.6191 2.3501 14.9518 2.36083 15.9823 2.40377C17.0128 2.44671 17.7105 2.61845 18.3223 2.8546C18.9556 3.10149 19.4923 3.43425 20.0291 3.97096C20.5658 4.50766 20.8985 5.04437 21.1454 5.67769C21.3816 6.28953 21.5426 6.99799 21.5962 8.01773C21.6392 9.04821 21.6499 9.38097 21.6499 12.0001ZM19.911 12.0001C19.911 9.42391 19.911 9.11262 19.8573 8.09287C19.8144 7.14827 19.6534 6.64376 19.5245 6.30027C19.3528 5.84943 19.1381 5.52741 18.8054 5.19465C18.4726 4.86189 18.1506 4.64721 17.6997 4.47546C17.3563 4.34665 16.8518 4.18564 15.9072 4.1427C14.8874 4.09977 14.5869 4.08903 11.9999 4.08903C9.41301 4.08903 9.11245 4.08903 8.09271 4.1427C7.14811 4.18564 6.64361 4.34665 6.30012 4.47546C5.84928 4.64721 5.52726 4.86189 5.1945 5.19465C4.86174 5.52741 4.64706 5.84943 4.47532 6.30027C4.34651 6.64376 4.18549 7.14827 4.14256 8.09287C4.09962 9.11262 4.08889 9.41317 4.08889 12.0001C4.08889 14.587 4.08889 14.8876 4.14256 15.9073C4.18549 16.8519 4.34651 17.3565 4.47532 17.6999C4.64706 18.1508 4.86174 18.4728 5.1945 18.8056C5.52726 19.1383 5.84928 19.353 6.30012 19.5248C6.64361 19.6536 7.14811 19.8146 8.09271 19.8575C9.11245 19.9004 9.41301 19.9112 11.9999 19.9112C14.5869 19.9112 14.8874 19.9112 15.9072 19.8575C16.8518 19.8146 17.3563 19.6536 17.6997 19.5248C18.1506 19.353 18.4726 19.1383 18.8054 18.8056C19.1381 18.4728 19.3528 18.1508 19.5245 17.6999C19.6534 17.3565 19.8144 16.8519 19.8573 15.9073C19.9002 14.8876 19.911 14.587 19.911 12.0001ZM16.9484 12.0001C16.9484 14.7373 14.7264 16.9593 11.9892 16.9593C9.252 16.9593 7.03004 14.7373 7.03004 12.0001C7.03004 9.2629 9.252 7.04093 11.9892 7.04093C14.7264 7.04093 16.9484 9.2629 16.9484 12.0001ZM15.2094 12.0001C15.2094 10.2182 13.7711 8.77986 11.9892 8.77986C10.2073 8.77986 8.76896 10.2182 8.76896 12.0001C8.76896 13.782 10.2073 15.2204 11.9892 15.2204C13.7711 15.2204 15.2094 13.782 15.2094 12.0001Z" fill="#505866"/>
</svg>
