<svg width="24" height="24" viewBox="0 0 24 24" fill="none" xmlns="http://www.w3.org/2000/svg">
<path fill-rule="evenodd" clip-rule="evenodd" d="M6.16458 4.34912C5.63474 4.34911 5.18351 4.3491 4.8131 4.37936C4.42394 4.41116 4.04535 4.48079 3.68342 4.66521C3.13775 4.94324 2.69411 5.38688 2.41607 5.93255C2.23166 6.29448 2.16203 6.67308 2.13023 7.06224C2.09997 7.43265 2.09998 7.88381 2.09999 8.41364V15.5845C2.09998 16.1144 2.09997 16.5656 2.13023 16.936C2.16203 17.3252 2.23166 17.7038 2.41607 18.0657C2.69411 18.6114 3.13775 19.055 3.68342 19.333C4.04535 19.5175 4.42394 19.5871 4.8131 19.6189C5.18353 19.6492 5.63471 19.6491 6.16457 19.6491H17.8353C18.3652 19.6491 18.8164 19.6492 19.1868 19.6189C19.576 19.5871 19.9546 19.5175 20.3165 19.333C20.8622 19.055 21.3058 18.6114 21.5838 18.0657C21.7682 17.7038 21.8379 17.3252 21.8697 16.936C21.8999 16.5656 21.8999 16.1144 21.8999 15.5846V8.41372C21.8999 7.88387 21.8999 7.43266 21.8697 7.06224C21.8379 6.67308 21.7682 6.29448 21.5838 5.93255C21.3058 5.38688 20.8622 4.94324 20.3165 4.66521C19.9546 4.48079 19.576 4.41116 19.1868 4.37936C18.8164 4.3491 18.3652 4.34911 17.8354 4.34912H6.16458ZM4.66007 6.20426C4.79159 6.16153 4.98542 6.15043 5.79998 6.15043H18.1999C19.0145 6.15043 19.2083 6.16153 19.3398 6.20426C19.6747 6.31307 19.9373 6.57562 20.0461 6.91051C20.0774 7.00695 20.0917 7.13689 20.0972 7.5205L13.2803 12.0676C12.5801 12.5347 12.4142 12.6294 12.261 12.6661C12.0925 12.7066 11.9169 12.7066 11.7483 12.6663C11.5952 12.6296 11.4292 12.535 10.7287 12.0683L3.90275 7.52022C3.90817 7.13683 3.9225 7.00692 3.95383 6.91051C4.06264 6.57562 4.32519 6.31307 4.66007 6.20426ZM3.89999 9.68153V15.9504C3.89999 16.765 3.91109 16.9588 3.95383 17.0903C4.06264 17.4252 4.32519 17.6878 4.66007 17.7966C4.79159 17.8393 4.98542 17.8504 5.79998 17.8504H18.1999C19.0145 17.8504 19.2083 17.8393 19.3398 17.7966C19.6747 17.6878 19.9373 17.4252 20.0461 17.0903C20.0888 16.9588 20.0999 16.765 20.0999 15.9504V9.68256L14.1727 13.6364C13.6378 13.9941 13.1878 14.295 12.6809 14.4167C12.2367 14.5232 11.7736 14.5234 11.3293 14.417C10.8224 14.2957 10.3723 13.995 9.83715 13.6375L3.89999 9.68153Z" fill="#505866"/>
</svg>
