<svg width="24" height="24" viewBox="0 0 24 24" fill="none" xmlns="http://www.w3.org/2000/svg">
<path d="M5.59999 15.1435C5.17019 15.133 4.81375 15.1026 4.4906 15.0161C3.14474 14.6554 2.0935 13.6042 1.73288 12.2583C1.59933 11.7599 1.59959 11.1823 1.59995 10.3785V10.1194C1.59959 9.31557 1.59933 8.73798 1.73288 8.23955C2.0935 6.89369 3.14474 5.84246 4.4906 5.48184C4.98902 5.34828 5.56661 5.34854 6.37046 5.34891L9.84962 5.34895L16.6735 3.00324C16.829 2.94972 16.9974 2.89181 17.1448 2.85552C17.3048 2.81617 17.5526 2.77125 17.8321 2.83949C18.1812 2.92473 18.4841 3.14095 18.6782 3.44338C18.8336 3.6855 18.8717 3.93447 18.8865 4.09849C18.9001 4.24977 18.9 4.42777 18.9 4.59227V15.9056C18.9 16.0701 18.9001 16.2481 18.8865 16.3994C18.8717 16.5634 18.8336 16.8124 18.6782 17.0545C18.4841 17.3569 18.1812 17.5732 17.8321 17.6584C17.5526 17.7266 17.3048 17.6817 17.1448 17.6424C16.9973 17.6061 16.829 17.5482 16.6735 17.4946L10.9 15.51V18.9989C10.9 20.4625 9.71354 21.6489 8.24999 21.6489C6.78644 21.6489 5.59999 20.4625 5.59999 18.9989V15.1435Z" fill="#505866"/>
<path d="M22.4 7.49888C22.4 7.00182 21.997 6.59888 21.5 6.59888C21.0029 6.59888 20.6 7.00182 20.6 7.49888V12.9989C20.6 13.4959 21.0029 13.8989 21.5 13.8989C21.997 13.8989 22.4 13.4959 22.4 12.9989V7.49888Z" fill="#505866"/>
</svg>
