<svg width="24" height="24" viewBox="0 0 24 24" fill="none" xmlns="http://www.w3.org/2000/svg">
<path d="M4.00022 4.49951C3.30987 4.49951 2.75023 5.05916 2.75023 5.74951C2.75023 6.43987 3.30987 6.99951 4.00022 6.99951H20.0002C20.6905 6.99951 21.2502 6.43987 21.2502 5.74951C21.2502 5.05916 20.6905 4.49951 20.0002 4.49951H4.00022Z" fill="#505866"/>
<path d="M2.75024 11.9997C2.75024 11.3094 3.30988 10.7497 4.00024 10.7497H20.0002C20.6905 10.7497 21.2502 11.3094 21.2502 11.9997C21.2502 12.6901 20.6905 13.2497 20.0002 13.2497H4.00024C3.30988 13.2497 2.75024 12.6901 2.75024 11.9997Z" fill="#505866"/>
<path d="M2.75024 18.2494C2.75024 17.5591 3.30988 16.9994 4.00023 16.9994H20.0002C20.6905 16.9994 21.2502 17.5591 21.2502 18.2494C21.2502 18.9398 20.6905 19.4994 20.0002 19.4994H4.00023C3.30988 19.4994 2.75024 18.9398 2.75024 18.2494Z" fill="#505866"/>
</svg>
