<svg width="24" height="24" viewBox="0 0 24 24" fill="none" xmlns="http://www.w3.org/2000/svg">
<path fill-rule="evenodd" clip-rule="evenodd" d="M2.35016 11.9999C2.35016 6.67031 6.67059 2.34985 12.0001 2.34985C17.3296 2.34985 21.6501 6.67031 21.6501 11.9999C21.6501 13.5382 21.2895 14.9946 20.6476 16.287L21.1419 18.0994C21.2538 18.5095 21.3536 18.8755 21.4067 19.1761C21.4605 19.4806 21.4971 19.8667 21.3499 20.2524C21.1569 20.7576 20.7578 21.1567 20.2526 21.3496C19.8669 21.4969 19.4809 21.4603 19.1763 21.4065C18.8757 21.3534 18.5098 21.2536 18.0997 21.1417L16.2873 20.6474C14.9948 21.2892 13.5384 21.6499 12.0001 21.6499C6.67059 21.6499 2.35016 17.3294 2.35016 11.9999ZM7.0998 9.99976C7.0998 9.5027 7.50274 9.09976 7.99979 9.09976H15.9998C16.4968 9.09976 16.8998 9.5027 16.8998 9.99976C16.8998 10.4968 16.4968 10.8998 15.9998 10.8998H7.99979C7.50274 10.8998 7.0998 10.4968 7.0998 9.99976ZM7.0998 13.9998C7.0998 13.5027 7.50274 13.0998 7.99979 13.0998H12.7498C13.2468 13.0998 13.6498 13.5027 13.6498 13.9998C13.6498 14.4968 13.2468 14.8998 12.7498 14.8998H7.99979C7.50274 14.8998 7.0998 14.4968 7.0998 13.9998Z" fill="#505866"/>
</svg>
