<svg width="24" height="24" viewBox="0 0 24 24" fill="none" xmlns="http://www.w3.org/2000/svg">
<path d="M7.34986 9.99976C7.34986 9.5027 7.75281 9.09976 8.24986 9.09976H15.7498C16.2469 9.09976 16.6498 9.5027 16.6498 9.99976C16.6498 10.4968 16.2469 10.8998 15.7498 10.8998H8.24986C7.75281 10.8998 7.34986 10.4968 7.34986 9.99976Z" fill="#505866"/>
<path d="M7.34986 13.9998C7.34986 13.5027 7.75281 13.0998 8.24986 13.0998H12.7498C13.2469 13.0998 13.6498 13.5027 13.6498 13.9998C13.6498 14.4968 13.2469 14.8998 12.7498 14.8998H8.24986C7.75281 14.8998 7.34986 14.4968 7.34986 13.9998Z" fill="#505866"/>
<path fill-rule="evenodd" clip-rule="evenodd" d="M12.0002 2.34985C6.67066 2.34985 2.35022 6.67031 2.35022 11.9999C2.35022 17.3294 6.67066 21.6499 12.0002 21.6499C13.5385 21.6499 14.9949 21.2892 16.2873 20.6474L18.0997 21.1417C18.5099 21.2536 18.8758 21.3534 19.1764 21.4065C19.481 21.4603 19.867 21.4969 20.2527 21.3496C20.7579 21.1567 21.157 20.7576 21.3499 20.2524C21.4972 19.8667 21.4606 19.4806 21.4068 19.1761C21.3537 18.8755 21.2539 18.5097 21.142 18.0996L20.6477 16.287C21.2895 14.9946 21.6501 13.5382 21.6501 11.9999C21.6501 6.67031 17.3297 2.34985 12.0002 2.34985ZM4.15027 11.9999C4.15027 7.66451 7.66483 4.14995 12.0002 4.14995C16.3357 4.14995 19.8502 7.66451 19.8502 11.9999C19.8502 13.3612 19.5045 14.6391 18.8967 15.7532C18.7854 15.9573 18.7573 16.1966 18.8185 16.421L19.6715 19.5484C19.6784 19.574 19.6763 19.5897 19.6731 19.6007C19.6692 19.6143 19.6606 19.6306 19.6457 19.6454C19.6309 19.6603 19.6146 19.669 19.6009 19.6729C19.5899 19.676 19.5742 19.6782 19.5487 19.6712L16.4212 18.8183C16.1969 18.7571 15.9576 18.7851 15.7534 18.8965C14.6394 19.5042 13.3615 19.8499 12.0002 19.8499C7.66483 19.8499 4.15027 16.3354 4.15027 11.9999Z" fill="#505866"/>
</svg>
