<svg width="24" height="24" viewBox="0 0 24 24" fill="none" xmlns="http://www.w3.org/2000/svg">
<path d="M9.41472 3.15968C10.0911 2.49066 11.0453 2.10205 12.0001 2.10205C12.96 2.10205 13.9034 2.48486 14.5856 3.15972L14.589 3.16314C15.1729 3.74704 15.4725 4.45387 15.5869 5.29525L15.5887 5.30869C15.6341 5.68454 15.6501 6.14796 15.6501 6.85203V10.1505C15.6501 10.8546 15.634 11.318 15.5886 11.6938L15.587 11.7073C15.4726 12.5487 15.1729 13.2555 14.589 13.8394L14.5856 13.8428C13.9034 14.5177 12.96 14.9005 12.0001 14.9005C11.0453 14.9005 10.0911 14.5119 9.41472 13.8428L9.41123 13.8394C8.8268 13.2549 8.53257 12.5637 8.41846 11.7045L8.41778 11.6994C8.36628 11.2938 8.35013 10.8232 8.35013 10.1505V6.85203C8.35013 6.17929 8.36629 5.70875 8.4178 5.30316L8.41845 5.29805C8.53256 4.43886 8.8268 3.74758 9.41123 3.16315L9.41472 3.15968Z" fill="#505866"/>
<path d="M6.40004 9.75008C6.40004 9.25303 5.99709 8.85008 5.50004 8.85008C5.00298 8.85008 4.60004 9.25303 4.60004 9.75008V11.2501C4.60004 15.0323 7.43759 18.1518 11.1 18.5959V20.0997H8.00001C7.50296 20.0997 7.10001 20.5026 7.10001 20.9997C7.10001 21.4968 7.50296 21.8997 8.00001 21.8997H16C16.4971 21.8997 16.9 21.4968 16.9 20.9997C16.9 20.5026 16.4971 20.0997 16 20.0997H12.9V18.5959C16.5625 18.1519 19.4 15.0323 19.4 11.2501V9.75008C19.4 9.25303 18.9971 8.85008 18.5 8.85008C18.003 8.85008 17.6 9.25303 17.6 9.75008V11.2501C17.6 14.3348 15.106 16.8369 12.0244 16.85C12.0201 16.8499 12.0158 16.8498 12.0115 16.8498C12.0076 16.8497 12.0038 16.8497 12 16.8497C11.9919 16.8497 11.9837 16.8498 11.9756 16.85C8.89407 16.8369 6.40004 14.3347 6.40004 11.2501V9.75008Z" fill="#505866"/>
</svg>
