<svg width="24" height="24" viewBox="0 0 24 24" fill="none" xmlns="http://www.w3.org/2000/svg">
<path d="M13.5394 14.5631L14.9733 15.997C14.1221 16.5314 13.1168 16.8432 12.0393 16.8505C12.0263 16.85 12.0132 16.8497 12 16.8497C11.9869 16.8497 11.9738 16.85 11.9607 16.8505C8.88603 16.8294 6.40004 14.3304 6.40004 11.2507V9.75068C6.40004 9.25363 5.9971 8.85068 5.50004 8.85068C5.00299 8.85068 4.60004 9.25363 4.60004 9.75068V11.2507C4.60004 15.0329 7.43759 18.1524 11.1 18.5965V20.0997H8.00001C7.50296 20.0997 7.10001 20.5026 7.10001 20.9997C7.10001 21.4968 7.50296 21.8997 8.00001 21.8997H16C16.4971 21.8997 16.9 21.4968 16.9 20.9997C16.9 20.5026 16.4971 20.0997 16 20.0997H12.9V18.5965C14.1454 18.4455 15.2954 17.9852 16.2709 17.2946L18.8638 19.8875C19.2153 20.2389 19.7851 20.2389 20.1366 19.8875C20.4881 19.536 20.4881 18.9662 20.1366 18.6147L17.6047 16.0828C18.7235 14.7863 19.4 13.0975 19.4 11.2507V9.75068C19.4 9.25363 18.9971 8.85068 18.5 8.85068C18.003 8.85068 17.6 9.25363 17.6 9.75068V11.2507C17.6 12.6004 17.1226 13.8385 16.3273 14.8054L5.13659 3.61468C4.78511 3.26321 4.21526 3.26321 3.86379 3.61468C3.51232 3.96615 3.51232 4.536 3.86379 4.88747L8.35013 9.37381V10.1505C8.35013 10.8232 8.36629 11.2938 8.4178 11.6994L8.41846 11.7045C8.53257 12.5637 8.8268 13.2549 9.41123 13.8394L9.41472 13.8428C10.0911 14.5119 11.0453 14.9005 12.0001 14.9005C12.5322 14.9005 13.0592 14.7829 13.5394 14.5631Z" fill="#505866"/>
<path d="M15.6501 10.1505C15.6501 10.7851 15.637 11.2242 15.6012 11.5798L8.57677 4.55538C8.7396 4.02618 9.00547 3.56891 9.41123 3.16315L9.41471 3.15967C10.0911 2.49065 11.0453 2.10205 12.0001 2.10205C12.96 2.10205 13.9034 2.48486 14.5856 3.15972L14.589 3.16314C15.1729 3.74704 15.4725 4.45387 15.5869 5.29525L15.5887 5.30869C15.6341 5.68454 15.6501 6.14796 15.6501 6.85203V10.1505Z" fill="#505866"/>
</svg>
