<svg width="24" height="24" viewBox="0 0 24 24" fill="none" xmlns="http://www.w3.org/2000/svg">
<path fill-rule="evenodd" clip-rule="evenodd" d="M15.9888 3.82152C17.1456 2.66464 19.0213 2.66464 20.1782 3.82152C21.3351 4.97841 21.3351 6.8541 20.1782 8.01098L7.55325 20.636C7.38447 20.8048 7.15555 20.8996 6.91686 20.8996H4.0002C3.50315 20.8996 3.1002 20.4966 3.1002 19.9996V17.0829C3.1002 16.8442 3.19503 16.6153 3.36381 16.4465L15.9888 3.82152ZM18.9054 5.09432C18.4515 4.64037 17.7155 4.64037 17.2615 5.09431L4.9002 17.4557V19.0996H6.54406L18.9054 6.73819C19.3594 6.28425 19.3594 5.54826 18.9054 5.09432Z" fill="#505866"/>
</svg>
