<svg width="24" height="24" viewBox="0 0 24 24" fill="none" xmlns="http://www.w3.org/2000/svg">
<path fill-rule="evenodd" clip-rule="evenodd" d="M7.10013 7.50107C7.10013 4.79488 9.29393 2.60107 12.0001 2.60107C14.7063 2.60107 16.9001 4.79488 16.9001 7.50107C16.9001 10.2073 14.7063 12.4011 12.0001 12.4011C9.29393 12.4011 7.10013 10.2073 7.10013 7.50107ZM12.0001 4.40107C10.288 4.40107 8.90012 5.78899 8.90012 7.50107C8.90012 9.21316 10.288 10.6011 12.0001 10.6011C13.7122 10.6011 15.1001 9.21316 15.1001 7.50107C15.1001 5.78899 13.7122 4.40107 12.0001 4.40107Z" fill="#505866"/>
<path fill-rule="evenodd" clip-rule="evenodd" d="M5.91638 14.9216C7.53066 14.0521 9.68809 13.5995 12 13.5995C14.312 13.5995 16.4694 14.0521 18.0837 14.9216C19.6968 15.7905 20.9 17.1657 20.9 18.9995L20.9 19.3264C20.9 19.513 20.9001 19.703 20.8868 19.8655C20.872 20.0462 20.8364 20.2704 20.7202 20.4986C20.562 20.8091 20.3096 21.0615 19.9991 21.2197C19.7709 21.336 19.5467 21.3716 19.366 21.3864C19.2035 21.3997 19.0135 21.3996 18.8269 21.3996L5.17339 21.4004C4.98673 21.4005 4.7967 21.4005 4.63426 21.3872C4.45353 21.3725 4.22928 21.3369 4.00103 21.2206C3.69055 21.0625 3.43811 20.81 3.27991 20.4996C3.16361 20.2713 3.12803 20.0471 3.11327 19.8663C3.09999 19.7039 3.10002 19.5139 3.10005 19.3272L3.10006 18.9995C3.10006 17.1657 4.30326 15.7905 5.91638 14.9216ZM6.77 16.5063C5.48771 17.1971 4.90005 18.0719 4.90005 18.9995L4.90186 19.5986L19.0982 19.5978L19.1 18.9995C19.1 18.0719 18.5123 17.1971 17.23 16.5063C15.9489 15.8162 14.1064 15.3995 12 15.3995C9.89369 15.3995 8.05115 15.8162 6.77 16.5063Z" fill="#505866"/>
<path d="M21.4002 8.50049C21.4002 8.00343 20.9972 7.60049 20.5002 7.60049C20.0031 7.60049 19.6002 8.00343 19.6002 8.50049V10.1005H18.0002C17.5031 10.1005 17.1002 10.5034 17.1002 11.0005C17.1002 11.4975 17.5031 11.9005 18.0002 11.9005H19.6002V13.5005C19.6002 13.9975 20.0031 14.4005 20.5002 14.4005C20.9972 14.4005 21.4002 13.9975 21.4002 13.5005V11.9005H23.0002C23.4972 11.9005 23.9002 11.4975 23.9002 11.0005C23.9002 10.5034 23.4972 10.1005 23.0002 10.1005H21.4002V8.50049Z" fill="#505866"/>
</svg>
