<svg width="24" height="24" viewBox="0 0 24 24" fill="none" xmlns="http://www.w3.org/2000/svg">
<path d="M7.60004 7.25303C7.60004 4.82297 9.56998 2.85303 12 2.85303C14.4301 2.85303 16.4 4.82297 16.4 7.25303C16.4 9.68308 14.4301 11.653 12 11.653C9.56998 11.653 7.60004 9.68308 7.60004 7.25303Z" fill="#505866"/>
<path d="M11.9999 13.5991C9.68801 13.5991 7.53058 14.0517 5.91631 14.9212C4.30318 15.7902 3.09998 17.1653 3.09998 18.9991L3.09998 19.3268C3.09995 19.5135 3.09992 19.7035 3.11319 19.8659C3.12796 20.0467 3.16353 20.2709 3.27983 20.4992C3.43804 20.8096 3.69047 21.0621 4.00095 21.2202C4.22921 21.3365 4.45346 21.3721 4.63418 21.3869C4.79663 21.4001 4.98666 21.4001 5.17331 21.4L18.8268 21.3992C19.0135 21.3992 19.2035 21.3993 19.3659 21.386C19.5466 21.3712 19.7708 21.3356 19.9991 21.2193C20.3095 21.0611 20.5619 20.8087 20.7201 20.4983C20.8364 20.27 20.8719 20.0458 20.8867 19.8651C20.9 19.7027 20.8999 19.5126 20.8999 19.326L20.8999 18.9991C20.8999 17.1653 19.6967 15.7902 18.0836 14.9212C16.4693 14.0517 14.3119 13.5991 11.9999 13.5991Z" fill="#505866"/>
</svg>
