<svg width="24" height="24" viewBox="0 0 24 24" fill="none" xmlns="http://www.w3.org/2000/svg">
<path d="M12 2.85303C9.57 2.85303 7.60006 4.82297 7.60006 7.25303C7.60006 9.68308 9.57 11.653 12 11.653C14.4301 11.653 16.4 9.68308 16.4 7.25303C16.4 4.82297 14.4301 2.85303 12 2.85303Z" fill="#505866"/>
<path d="M5.91632 14.9212C7.53059 14.0517 9.68803 13.5991 12 13.5991C14.3119 13.5991 16.4693 14.0517 18.0836 14.9212C19.6967 15.7902 20.8999 17.1653 20.8999 18.9991L20.8999 19.326C20.9 19.5126 20.9 19.7027 20.8867 19.8651C20.872 20.0458 20.8364 20.27 20.7201 20.4983C20.5619 20.8087 20.3095 21.0611 19.9991 21.2193C19.7709 21.3356 19.5466 21.3712 19.3659 21.386C19.2035 21.3993 19.0135 21.3992 18.8268 21.3992L5.17332 21.4C4.98667 21.4001 4.79664 21.4001 4.6342 21.3869C4.45347 21.3721 4.22922 21.3365 4.00097 21.2202C3.69049 21.0621 3.43805 20.8096 3.27985 20.4992C3.16355 20.2709 3.12797 20.0467 3.1132 19.8659C3.09993 19.7035 3.09996 19.5135 3.09999 19.3268L3.1 18.9991C3.1 17.1653 4.3032 15.7902 5.91632 14.9212Z" fill="#505866"/>
<path d="M21.4001 8.50049C21.4001 8.00343 20.9972 7.60049 20.5001 7.60049C20.0031 7.60049 19.6001 8.00343 19.6001 8.50049V10.1005H18.0001C17.5031 10.1005 17.1001 10.5034 17.1001 11.0005C17.1001 11.4975 17.5031 11.9005 18.0001 11.9005H19.6001V13.5005C19.6001 13.9975 20.0031 14.4005 20.5001 14.4005C20.9972 14.4005 21.4001 13.9975 21.4001 13.5005V11.9005H23.0001C23.4972 11.9005 23.9001 11.4975 23.9001 11.0005C23.9001 10.5034 23.4972 10.1005 23.0001 10.1005H21.4001V8.50049Z" fill="#505866"/>
</svg>
