<svg width="24" height="24" viewBox="0 0 24 24" fill="none" xmlns="http://www.w3.org/2000/svg">
<path fill-rule="evenodd" clip-rule="evenodd" d="M17.0084 20.7959C14.8245 20.3535 11.4908 19.1307 8.18183 15.8218C4.87291 12.5129 3.65014 9.17916 3.20772 6.99516C2.84048 5.1823 3.66214 3.51236 4.82621 2.34829L5.09821 2.07629C6.36536 0.809137 8.46704 0.983077 9.50863 2.44131L10.9333 4.43589C11.6152 5.39058 11.507 6.69833 10.6774 7.52792L9.84832 8.35703C10.1002 8.96302 10.7445 10.182 12.283 11.7206C13.8216 13.2592 15.0406 13.9035 15.6466 14.1553L16.4757 13.3262C17.3053 12.4966 18.613 12.3884 19.5677 13.0703L21.5623 14.495C23.0205 15.5366 23.1944 17.6383 21.9273 18.9054L21.6553 19.1774C20.4912 20.3415 18.8213 21.1632 17.0084 20.7959ZM9.45462 14.549C12.4769 17.5713 15.4744 18.6486 17.3658 19.0318C18.4018 19.2416 19.4912 18.7959 20.3825 17.9046L20.6545 17.6326C21.1352 17.152 21.0692 16.3548 20.5161 15.9597L18.5215 14.535C18.2828 14.3645 17.9559 14.3916 17.7485 14.599L16.9041 15.4434C16.4619 15.8856 15.7531 16.1356 15.0492 15.8555C14.2382 15.5327 12.779 14.7621 11.0103 12.9934C9.24154 11.2246 8.47092 9.76537 8.14817 8.95446C7.86801 8.25054 8.11806 7.54171 8.56027 7.0995L9.40464 6.25513C9.61203 6.04773 9.63909 5.72079 9.46861 5.48212L8.04392 3.48754C7.64883 2.93441 6.85164 2.86844 6.371 3.34908L6.09899 3.62108C5.20773 4.51235 4.76202 5.60183 4.97188 6.63778C5.35502 8.52916 6.43233 11.5267 9.45462 14.549Z" fill="#505866"/>
</svg>
