<svg width="24" height="24" viewBox="0 0 24 24" fill="none" xmlns="http://www.w3.org/2000/svg">
<path d="M8.18177 15.8218C11.4907 19.1307 14.8244 20.3535 17.0084 20.7959C18.8212 21.1632 20.4912 20.3415 21.6552 19.1774L21.9272 18.9054C23.1944 17.6383 23.0204 15.5366 21.5622 14.495L19.5676 13.0703C18.613 12.3884 17.3052 12.4966 16.4756 13.3262L15.6465 14.1553C15.0405 13.9035 13.8216 13.2592 12.283 11.7206C10.7444 10.182 10.1001 8.96302 9.84826 8.35703L10.6774 7.52792C11.5069 6.69833 11.6152 5.39058 10.9333 4.43589L9.50857 2.44131C8.46698 0.983077 6.3653 0.809137 5.09815 2.07629L4.82615 2.34829C3.66208 3.51236 2.84042 5.1823 3.20766 6.99516C3.65008 9.17916 4.87285 12.5129 8.18177 15.8218Z" fill="#505866"/>
</svg>
