<svg width="24" height="24" viewBox="0 0 24 24" fill="none" xmlns="http://www.w3.org/2000/svg">
<path d="M8.94737 2.60205H15.053C15.4692 2.60203 15.8417 2.60201 16.1409 2.62945C16.4453 2.65737 16.8214 2.72285 17.1518 2.96121C17.5861 3.27455 17.868 3.75662 17.9281 4.28877C17.9738 4.69359 17.8465 5.05343 17.7215 5.33248C17.5987 5.60668 17.4161 5.93125 17.2119 6.29405L16.4001 7.73689V10.6854L18.1489 12.8714C18.4599 13.2601 18.731 13.599 18.9202 13.8852C19.1055 14.1654 19.319 14.5455 19.3195 14.999C19.3201 15.5777 19.057 16.125 18.6048 16.486C18.2503 16.769 17.8201 16.8397 17.4856 16.8701C17.1439 16.9011 16.7098 16.9011 16.2121 16.9011L12.8998 16.9011V22.0011C12.8998 22.4981 12.4968 22.9011 11.9998 22.9011C11.5027 22.9011 11.0998 22.4981 11.0998 22.0011V16.9011L7.78811 16.9011C7.29039 16.9011 6.85634 16.9011 6.51459 16.8701C6.18009 16.8397 5.74993 16.769 5.39543 16.486C4.94321 16.125 4.68013 15.5776 4.68076 14.999C4.68125 14.5454 4.89475 14.1654 5.07999 13.8852C5.26924 13.5989 5.54039 13.26 5.85131 12.8714L7.60018 10.6854V7.73689L6.78838 6.29404C6.58424 5.93125 6.40159 5.60668 6.27881 5.33248C6.15385 5.05343 6.02652 4.69359 6.07225 4.28877C6.13237 3.75662 6.41427 3.27455 6.84857 2.96121C7.17895 2.72285 7.55501 2.65737 7.85947 2.62945C8.15864 2.60201 8.5311 2.60203 8.94737 2.60205Z" fill="#505866"/>
</svg>
