<svg width="24" height="24" viewBox="0 0 24 24" fill="none" xmlns="http://www.w3.org/2000/svg">
<path d="M11.9997 2.70215C12.7177 2.70215 13.2997 3.28418 13.2997 4.00215V10.7021H19.9997C20.7177 10.7021 21.2997 11.2842 21.2997 12.0021C21.2997 12.7201 20.7177 13.3021 19.9997 13.3021H13.2997V20.0021C13.2997 20.7201 12.7177 21.3021 11.9997 21.3021C11.2817 21.3021 10.6997 20.7201 10.6997 20.0021V13.3021H3.99969C3.28172 13.3021 2.69969 12.7201 2.69969 12.0021C2.69969 11.2842 3.28172 10.7021 3.99969 10.7021H10.6997V4.00215C10.6997 3.28418 11.2817 2.70215 11.9997 2.70215Z" fill="#505866"/>
</svg>
