<svg width="24" height="24" viewBox="0 0 24 24" fill="none" xmlns="http://www.w3.org/2000/svg">
<path fill-rule="evenodd" clip-rule="evenodd" d="M9.99973 2.1001C5.6367 2.1001 2.09976 5.63705 2.09976 10.0001C2.09976 14.3631 5.6367 17.9001 9.99973 17.9001C11.857 17.9001 13.5646 17.2592 14.9134 16.1864L19.8634 21.1365C20.2149 21.4879 20.7848 21.4879 21.1362 21.1365C21.4877 20.785 21.4877 20.2151 21.1362 19.8637L16.1862 14.9136C17.2588 13.5648 17.8997 11.8573 17.8997 10.0001C17.8997 5.63705 14.3628 2.1001 9.99973 2.1001ZM3.89976 10.0001C3.89976 6.63116 6.63081 3.9001 9.99973 3.9001C13.3687 3.9001 16.0997 6.63116 16.0997 10.0001C16.0997 13.369 13.3687 16.1001 9.99973 16.1001C6.63081 16.1001 3.89976 13.369 3.89976 10.0001Z" fill="#505866"/>
</svg>
