<svg width="24" height="24" viewBox="0 0 24 24" fill="none" xmlns="http://www.w3.org/2000/svg">
<path d="M7.94453 3.40825L20.2247 9.80067C20.6352 10.0144 20.997 10.2027 21.2706 10.3785C21.5428 10.5534 21.8723 10.8026 22.0561 11.1967C22.2934 11.7057 22.2934 12.2936 22.0561 12.8026C21.8723 13.1967 21.5428 13.4459 21.2706 13.6208C20.997 13.7966 20.6352 13.9849 20.2247 14.1986L7.94453 20.591C7.45384 20.8465 7.03224 21.066 6.68907 21.2074C6.36185 21.3423 5.91554 21.4929 5.44632 21.388C4.85888 21.2567 4.3684 20.8548 4.12418 20.3046C3.92911 19.8652 3.98898 19.398 4.0569 19.0506C4.12814 18.6863 4.26045 18.2298 4.41446 17.6985L5.80519 12.8996H12.9999C13.4969 12.8996 13.8999 12.4967 13.8999 11.9996C13.8999 11.5026 13.4969 11.0996 12.9999 11.0996H5.80519L4.41446 6.30083C4.26045 5.76947 4.12814 5.31298 4.0569 4.94869C3.98898 4.60133 3.92911 4.13414 4.12418 3.69469C4.3684 3.14451 4.85888 2.74261 5.44632 2.61131C5.91554 2.50643 6.36185 2.65698 6.68907 2.79186C7.03225 2.93332 7.45382 3.15279 7.94453 3.40825Z" fill="#505866"/>
</svg>
