<svg width="24" height="24" viewBox="0 0 24 24" fill="none" xmlns="http://www.w3.org/2000/svg">
<path fill-rule="evenodd" clip-rule="evenodd" d="M7.73676 12.707C7.30968 12.3496 6.68795 12.3496 6.26087 12.707C6.07425 12.8631 5.96986 13.0743 5.86934 13.2898C5.59586 13.8758 5.49231 14.0933 5.3688 14.2854C5.08978 14.7197 4.72065 15.0888 4.28644 15.3678C4.09424 15.4913 3.87683 15.5949 3.29083 15.8684C3.07533 15.9689 2.86408 16.0733 2.70795 16.2599C2.35063 16.687 2.35063 17.3087 2.70795 17.7358C2.86409 17.9224 3.07534 18.0268 3.29083 18.1273C3.87683 18.4008 4.09424 18.5043 4.28644 18.6278C4.72065 18.9069 5.08978 19.276 5.3688 19.7102C5.49231 19.9024 5.59586 20.1198 5.86934 20.7058C5.96984 20.9213 6.07426 21.1326 6.26087 21.2887C6.68795 21.646 7.30968 21.646 7.73676 21.2887C7.92337 21.1326 8.02778 20.9213 8.12829 20.7058C8.40178 20.1198 8.50532 19.9024 8.62883 19.7102C8.90786 19.276 9.27699 18.9069 9.71119 18.6278C9.90339 18.5043 10.1208 18.4008 10.7068 18.1273C10.9223 18.0268 11.1335 17.9224 11.2897 17.7358C11.647 17.3087 11.647 16.687 11.2897 16.2599C11.1335 16.0733 10.9223 15.9689 10.7068 15.8684C10.1208 15.5949 9.90339 15.4913 9.71119 15.3678C9.27699 15.0888 8.90786 14.7197 8.62883 14.2854C8.50532 14.0933 8.40178 13.8758 8.12829 13.2898C8.02777 13.0743 7.92338 12.8631 7.73676 12.707ZM6.88309 15.2586C6.92302 15.1964 6.96125 15.1332 6.99882 15.0676C7.03638 15.1332 7.07461 15.1964 7.11454 15.2586C7.53308 15.9099 8.08678 16.4636 8.73809 16.8821C8.80022 16.922 8.86347 16.9603 8.92908 16.9978C8.86347 17.0354 8.80022 17.0736 8.73809 17.1135C8.08678 17.5321 7.53308 18.0858 7.11454 18.7371C7.07461 18.7992 7.03638 18.8625 6.99882 18.9281C6.96125 18.8625 6.92302 18.7992 6.88309 18.7371C6.46455 18.0858 5.91085 17.5321 5.25955 17.1135C5.19741 17.0736 5.13416 17.0354 5.06856 16.9978C5.13416 16.9603 5.19741 16.922 5.25955 16.8821C5.91085 16.4636 6.46455 15.9099 6.88309 15.2586Z" fill="#505866"/>
<path fill-rule="evenodd" clip-rule="evenodd" d="M8.78193 7.51872C8.45272 7.6828 8.01903 7.9319 7.78852 8.37678C7.64654 8.6508 7.57554 8.95077 7.57552 9.25074C7.57554 9.55072 7.64654 9.85069 7.78852 10.1247C8.01903 10.5696 8.45272 10.8187 8.78193 10.9828C9.07732 11.13 9.4577 11.2851 9.9015 11.4609L10.9448 11.8724C11.486 12.0858 11.9144 12.5142 12.1279 13.0555L12.4744 13.9339C12.6775 14.4488 12.8526 14.8872 13.0178 15.2186C13.1818 15.5478 13.4309 15.9815 13.8758 16.212C14.1499 16.354 14.4498 16.4248 14.7499 16.4248C15.05 16.4248 15.3499 16.354 15.624 16.212C16.0689 15.9815 16.318 15.5478 16.482 15.2186C16.6472 14.8872 16.8223 14.4488 17.0254 13.9339L17.3719 13.0555C17.5854 12.5142 18.0138 12.0858 18.555 11.8724L19.5983 11.4609C20.0421 11.2851 20.4225 11.13 20.7179 10.9828C21.0471 10.8187 21.4808 10.5696 21.7113 10.1247C21.8533 9.85069 21.9243 9.55072 21.9243 9.25074C21.9243 8.95077 21.8533 8.6508 21.7113 8.37678C21.4808 7.9319 21.0471 7.6828 20.7179 7.51872C20.4225 7.37149 20.0421 7.21644 19.5983 7.04059L18.555 6.62911C18.0138 6.41566 17.5854 5.98725 17.3719 5.44603L17.0254 4.56758C16.8223 4.05268 16.6472 3.6143 16.482 3.28289C16.318 2.95368 16.0689 2.52 15.624 2.28949C15.3499 2.14749 15.05 2.07665 14.7499 2.07666C14.4498 2.07665 14.1499 2.14749 13.8758 2.28949C13.4309 2.52 13.1818 2.95368 13.0178 3.28289C12.8526 3.6143 12.6775 4.05268 12.4744 4.56758L12.1279 5.44603C11.9144 5.98725 11.486 6.41566 10.9448 6.62911L9.9015 7.04059C9.4577 7.21644 9.07732 7.37149 8.78193 7.51872ZM13.9725 5.67505L14.6569 3.93978C14.6737 3.89722 14.7037 3.87646 14.7499 3.87646C14.7961 3.87646 14.8261 3.89722 14.8429 3.93978L15.5273 5.67505C15.7286 6.18251 15.8948 6.57349 16.1321 6.91434C16.3939 7.28776 16.7194 7.6125 17.0934 7.87354C17.4266 8.10412 17.8078 8.26765 18.2988 8.46284L20.061 9.15783C20.1035 9.17462 20.1243 9.20469 20.1243 9.25086C20.1243 9.29703 20.1035 9.3271 20.061 9.34388L18.2988 10.0389C17.8078 10.2341 17.4266 10.3976 17.0934 10.6282C16.7194 10.8892 16.3939 11.214 16.1321 11.5874C15.8948 11.9282 15.7286 12.3192 15.5273 12.8267L14.8429 14.5619C14.8261 14.6045 14.7961 14.6253 14.7499 14.6253C14.7037 14.6253 14.6737 14.6045 14.6569 14.5619L13.9725 12.8267C13.7712 12.3192 13.605 11.9282 13.3677 11.5874C13.1059 11.214 12.7804 10.8892 12.4064 10.6282C12.0732 10.3976 11.692 10.2341 11.201 10.0389L9.43881 9.34388C9.39626 9.3271 9.3755 9.29703 9.3755 9.25086C9.3755 9.20469 9.39626 9.17462 9.43881 9.15783L11.201 8.46284C11.692 8.26765 12.0732 8.10412 12.4064 7.87354C12.7804 7.6125 13.1059 7.28776 13.3677 6.91434C13.605 6.57349 13.7712 6.18251 13.9725 5.67505Z" fill="#505866"/>
</svg>
