<svg width="24" height="24" viewBox="0 0 24 24" fill="none" xmlns="http://www.w3.org/2000/svg">
<path d="M12.9 8.00049C12.9 7.50343 12.4971 7.10049 12 7.10049C11.503 7.10049 11.1 7.50343 11.1 8.00049V11.1005H8.00003C7.50297 11.1005 7.10003 11.5034 7.10003 12.0005C7.10003 12.4975 7.50297 12.9005 8.00003 12.9005H11.1V16.0005C11.1 16.4976 11.503 16.9005 12 16.9005C12.4971 16.9005 12.9 16.4976 12.9 16.0005V12.9005H16C16.4971 12.9005 16.9 12.4975 16.9 12.0005C16.9 11.5034 16.4971 11.1005 16 11.1005H12.9V8.00049Z" fill="#505866"/>
<path fill-rule="evenodd" clip-rule="evenodd" d="M8.26263 2.60205C7.45458 2.60204 6.79372 2.60203 6.25664 2.64591C5.70073 2.69133 5.19865 2.78822 4.72976 3.02713C3.99593 3.40103 3.39931 3.99766 3.0254 4.73149C2.78649 5.20038 2.68961 5.70246 2.64419 6.25837C2.60031 6.79544 2.60032 7.45629 2.60033 8.26433V15.7398C2.60032 16.5478 2.60031 17.2087 2.64419 17.7457C2.68961 18.3016 2.78649 18.8037 3.0254 19.2726C3.39931 20.0064 3.99593 20.6031 4.72976 20.977C5.19865 21.2159 5.70073 21.3128 6.25664 21.3582C6.79372 21.4021 7.45457 21.4021 8.26262 21.4021H15.738C16.5461 21.4021 17.2069 21.4021 17.744 21.3582C18.2999 21.3128 18.802 21.2159 19.2709 20.977C20.0047 20.6031 20.6013 20.0064 20.9753 19.2726C21.2142 18.8037 21.311 18.3016 21.3565 17.7457C21.4003 17.2087 21.4003 16.5478 21.4003 15.7398V8.26435C21.4003 7.4563 21.4003 6.79545 21.3565 6.25837C21.311 5.70246 21.2142 5.20038 20.9753 4.73149C20.6013 3.99766 20.0047 3.40103 19.2709 3.02713C18.802 2.78822 18.2999 2.69133 17.744 2.64591C17.2069 2.60203 16.5461 2.60204 15.7381 2.60205H8.26263ZM5.54695 4.63094C5.71979 4.54287 5.95862 4.47626 6.40322 4.43994C6.85833 4.40275 7.4454 4.40205 8.30033 4.40205H15.7003C16.5553 4.40205 17.1423 4.40275 17.5974 4.43994C18.042 4.47626 18.2809 4.54287 18.4537 4.63094C18.8488 4.83227 19.1701 5.15353 19.3714 5.54867C19.4595 5.72152 19.5261 5.96035 19.5624 6.40495C19.5996 6.86005 19.6003 7.44712 19.6003 8.30205V15.7021C19.6003 16.557 19.5996 17.1441 19.5624 17.5992C19.5261 18.0438 19.4595 18.2826 19.3714 18.4554C19.1701 18.8506 18.8488 19.1718 18.4537 19.3732C18.2809 19.4612 18.042 19.5278 17.5974 19.5642C17.1423 19.6014 16.5553 19.6021 15.7003 19.6021H8.30033C7.4454 19.6021 6.85833 19.6014 6.40322 19.5642C5.95862 19.5278 5.71979 19.4612 5.54695 19.3732C5.15181 19.1718 4.83055 18.8506 4.62921 18.4554C4.54114 18.2826 4.47454 18.0438 4.43821 17.5992C4.40103 17.1441 4.40033 16.557 4.40033 15.7021V8.30205C4.40033 7.44712 4.40103 6.86005 4.43821 6.40495C4.47454 5.96035 4.54114 5.72152 4.62921 5.54867C4.83055 5.15353 5.15181 4.83227 5.54695 4.63094Z" fill="#505866"/>
</svg>
