<svg width="24" height="24" viewBox="0 0 24 24" fill="none" xmlns="http://www.w3.org/2000/svg">
<path fill-rule="evenodd" clip-rule="evenodd" d="M14.3969 15.9622C14.5104 16.2842 14.8146 16.4995 15.1559 16.4995C15.7205 16.4995 16.1096 15.9334 15.9072 15.4063L13.1846 8.3157C12.9953 7.82273 12.5218 7.49736 11.9938 7.49736C11.4657 7.49736 10.9922 7.82273 10.8029 8.3157L8.0833 15.3985C7.87949 15.9293 8.27134 16.4995 8.83993 16.4995C9.18374 16.4995 9.49014 16.2826 9.60437 15.9583L10.1846 14.3112H13.8153L14.3969 15.9622ZM13.2931 12.8191H10.7193L11.9627 9.26298H12.0248L13.2931 12.8191Z" fill="#505866"/>
<path fill-rule="evenodd" clip-rule="evenodd" d="M8.26255 2.60205C7.45451 2.60204 6.79364 2.60203 6.25657 2.64591C5.70066 2.69133 5.19858 2.78822 4.7297 3.02713C3.99587 3.40103 3.39924 3.99766 3.02534 4.73149C2.78643 5.20038 2.68955 5.70246 2.64413 6.25837C2.60025 6.79544 2.60026 7.45629 2.60027 8.26433V15.7398C2.60026 16.5478 2.60025 17.2087 2.64413 17.7457C2.68955 18.3016 2.78643 18.8037 3.02534 19.2726C3.39924 20.0064 3.99587 20.6031 4.7297 20.977C5.19858 21.2159 5.70066 21.3128 6.25657 21.3582C6.79365 21.4021 7.45449 21.4021 8.26255 21.4021H15.7379C16.546 21.4021 17.2068 21.4021 17.7439 21.3582C18.2998 21.3128 18.8019 21.2159 19.2708 20.977C20.0046 20.6031 20.6012 20.0064 20.9751 19.2726C21.214 18.8037 21.3109 18.3016 21.3563 17.7457C21.4002 17.2087 21.4002 16.5478 21.4002 15.7398V8.26435C21.4002 7.4563 21.4002 6.79545 21.3563 6.25837C21.3109 5.70246 21.214 5.20038 20.9751 4.73149C20.6012 3.99766 20.0046 3.40103 19.2708 3.02713C18.8019 2.78822 18.2998 2.69133 17.7439 2.64591C17.2068 2.60203 16.546 2.60204 15.738 2.60205H8.26255ZM5.54688 4.63094C5.71972 4.54287 5.95855 4.47626 6.40315 4.43994C6.85825 4.40275 7.44532 4.40205 8.30025 4.40205H15.7002C16.5552 4.40205 17.1422 4.40275 17.5973 4.43994C18.0419 4.47626 18.2808 4.54287 18.4536 4.63094C18.8487 4.83227 19.17 5.15353 19.3713 5.54867C19.4594 5.72152 19.526 5.96035 19.5623 6.40495C19.5995 6.86005 19.6002 7.44712 19.6002 8.30205V15.7021C19.6002 16.557 19.5995 17.1441 19.5623 17.5992C19.526 18.0438 19.4594 18.2826 19.3713 18.4554C19.17 18.8506 18.8487 19.1718 18.4536 19.3732C18.2808 19.4612 18.0419 19.5278 17.5973 19.5642C17.1422 19.6014 16.5552 19.6021 15.7002 19.6021H8.30025C7.44532 19.6021 6.85825 19.6014 6.40315 19.5642C5.95855 19.5278 5.71972 19.4612 5.54688 19.3732C5.15174 19.1718 4.83048 18.8506 4.62915 18.4554C4.54108 18.2826 4.47447 18.0438 4.43814 17.5992C4.40096 17.1441 4.40026 16.557 4.40026 15.7021V8.30205C4.40026 7.44712 4.40096 6.86005 4.43814 6.40495C4.47447 5.96035 4.54108 5.72152 4.62915 5.54867C4.83048 5.15353 5.15174 4.83227 5.54688 4.63094Z" fill="#505866"/>
</svg>
