<svg width="24" height="24" viewBox="0 0 24 24" fill="none" xmlns="http://www.w3.org/2000/svg">
<path fill-rule="evenodd" clip-rule="evenodd" d="M8.26252 2.60303H15.7379C16.546 2.60302 17.2068 2.60301 17.7439 2.64689C18.2998 2.69231 18.8019 2.78919 19.2708 3.0281C20.0046 3.40201 20.6012 3.99863 20.9751 4.73247C21.2141 5.20135 21.3109 5.70343 21.3564 6.25935C21.4002 6.79642 21.4002 7.45727 21.4002 8.26532V15.7407C21.4002 16.5488 21.4002 17.2096 21.3564 17.7467C21.3109 18.3026 21.2141 18.8047 20.9751 19.2736C20.6012 20.0074 20.0046 20.604 19.2708 20.978C18.8019 21.2169 18.2998 21.3137 17.7439 21.3592C17.2068 21.403 16.546 21.403 15.7379 21.403H8.26252C7.45446 21.403 6.79361 21.403 6.25654 21.3592C5.70062 21.3137 5.19855 21.2169 4.72966 20.978C3.99583 20.604 3.3992 20.0074 3.0253 19.2736C2.78638 18.8047 2.6895 18.3026 2.64408 17.7467C2.6002 17.2096 2.60021 16.5488 2.60022 15.7408V8.26533C2.60021 7.45729 2.6002 6.79641 2.64408 6.25935C2.6895 5.70343 2.78638 5.20135 3.0253 4.73247C3.3992 3.99863 3.99583 3.40201 4.72966 3.0281C5.19855 2.78919 5.70062 2.69231 6.25654 2.64689C6.79361 2.60301 7.45448 2.60302 8.26252 2.60303ZM12.8999 8.00049C12.8999 7.50343 12.497 7.10049 11.9999 7.10049C11.5029 7.10049 11.0999 7.50343 11.0999 8.00049V11.1005H7.99994C7.50288 11.1005 7.09994 11.5034 7.09994 12.0005C7.09994 12.4975 7.50288 12.9005 7.99994 12.9005H11.0999V16.0005C11.0999 16.4976 11.5029 16.9005 11.9999 16.9005C12.497 16.9005 12.8999 16.4976 12.8999 16.0005V12.9005H15.9999C16.497 12.9005 16.8999 12.4975 16.8999 12.0005C16.8999 11.5034 16.497 11.1005 15.9999 11.1005H12.8999V8.00049Z" fill="#505866"/>
</svg>
