<svg width="24" height="24" viewBox="0 0 24 24" fill="none" xmlns="http://www.w3.org/2000/svg">
<path d="M12.8613 1.40824C12.3199 1.1328 11.6795 1.1328 11.1381 1.40824C10.7036 1.62929 10.4542 2.03942 10.2878 2.35692C10.1122 2.69214 9.92557 3.14091 9.70753 3.66518L8.50223 6.56307C8.42993 6.73692 8.39081 6.82994 8.35806 6.89672C8.34819 6.91684 8.34139 6.92928 8.33746 6.93609C8.33144 6.94172 8.32474 6.94659 8.31753 6.95057C8.30984 6.9522 8.29591 6.95483 8.27372 6.958C8.20009 6.96851 8.09954 6.97697 7.91185 6.99201L4.78338 7.24282C4.21738 7.28818 3.73289 7.327 3.35979 7.39046C3.00643 7.45055 2.53929 7.56107 2.1948 7.90595C1.76554 8.33571 1.56764 8.94481 1.66231 9.5448C1.73828 10.0263 2.05125 10.3903 2.3018 10.6466C2.56635 10.9173 2.93548 11.2334 3.36672 11.6028L5.7503 13.6446C5.8933 13.7671 5.96967 13.833 6.02306 13.8848C6.03915 13.9004 6.04888 13.9107 6.05414 13.9166C6.05764 13.924 6.06019 13.9319 6.06176 13.94C6.06093 13.9478 6.05912 13.9619 6.05528 13.984C6.04252 14.0573 6.01949 14.1555 5.97581 14.3386L5.24759 17.3915C5.11582 17.9438 5.00303 18.4166 4.94808 18.791C4.89604 19.1457 4.85679 19.6241 5.07835 20.0583C5.35442 20.5994 5.87255 20.9758 6.47243 21.0712C6.95385 21.1477 7.39673 20.9625 7.71793 20.8035C8.05707 20.6355 8.47185 20.3821 8.95642 20.0861L11.6348 18.4502C11.7955 18.352 11.8818 18.2998 11.9476 18.265C11.9674 18.2545 11.9802 18.2484 11.9874 18.2452C11.9956 18.2442 12.0038 18.2442 12.012 18.2452C12.0192 18.2484 12.032 18.2545 12.0518 18.265C12.1176 18.2998 12.2039 18.352 12.3646 18.4502L15.043 20.0862C15.5275 20.3821 15.9424 20.6355 16.2815 20.8035C16.6027 20.9625 17.0456 21.1477 17.527 21.0712C18.1268 20.9758 18.645 20.5994 18.9211 20.0583C19.1426 19.6241 19.1034 19.1457 19.0513 18.791C18.9964 18.4166 18.8836 17.9438 18.7518 17.3915L18.0236 14.3386C17.9799 14.1555 17.9569 14.0573 17.9441 13.984C17.9403 13.9619 17.9385 13.9478 17.9376 13.94C17.9392 13.9319 17.9418 13.924 17.9453 13.9166C17.9505 13.9107 17.9602 13.9004 17.9763 13.8848C18.0297 13.833 18.1061 13.7671 18.2491 13.6446L20.6327 11.6028C21.0639 11.2334 21.433 10.9173 21.6976 10.6466C21.9481 10.3903 22.2611 10.0263 22.3371 9.5448C22.4318 8.94481 22.2338 8.33571 21.8046 7.90595C21.4601 7.56107 20.993 7.45055 20.6396 7.39046C20.2665 7.327 19.782 7.28818 19.216 7.24282L16.0875 6.99201C15.8999 6.97697 15.7993 6.96851 15.7257 6.958C15.7035 6.95483 15.6896 6.9522 15.6819 6.95057C15.6747 6.94659 15.668 6.94172 15.6619 6.93609C15.658 6.92928 15.6512 6.91684 15.6413 6.89672C15.6086 6.82994 15.5695 6.73693 15.4972 6.56307L14.2919 3.66522C14.0738 3.14094 13.8872 2.69215 13.7116 2.35692C13.5452 2.03942 13.2957 1.62929 12.8613 1.40824Z" fill="#505866"/>
</svg>
