<svg width="24" height="24" viewBox="0 0 24 24" fill="none" xmlns="http://www.w3.org/2000/svg">
<path d="M8.26255 2.60254H15.7379C16.546 2.60253 17.2068 2.60252 17.7439 2.6464C18.2998 2.69182 18.8019 2.7887 19.2708 3.02762C20.0046 3.40152 20.6012 3.99815 20.9751 4.73198C21.214 5.20087 21.3109 5.70295 21.3563 6.25886C21.4002 6.79594 21.4002 7.45679 21.4002 8.26484V8.60079H2.60027V8.26484C2.60026 7.4568 2.60025 6.79593 2.64413 6.25886C2.68955 5.70295 2.78643 5.20087 3.02534 4.73198C3.39924 3.99815 3.99587 3.40152 4.7297 3.02762C5.19858 2.7887 5.70066 2.69182 6.25657 2.6464C6.79364 2.60252 7.45451 2.60253 8.26255 2.60254Z" fill="#505866"/>
<path d="M2.60027 10.4008V15.7402C2.60026 16.5483 2.60025 17.2092 2.64413 17.7462C2.68955 18.3021 2.78643 18.8042 3.02534 19.2731C3.39924 20.0069 3.99587 20.6036 4.7297 20.9775C5.19858 21.2164 5.70066 21.3133 6.25657 21.3587C6.79365 21.4026 7.45449 21.4026 8.26254 21.4025H8.59991V10.4008H2.60027Z" fill="#505866"/>
<path d="M10.3999 21.4025H15.7379C16.546 21.4026 17.2068 21.4026 17.7439 21.3587C18.2998 21.3133 18.8019 21.2164 19.2708 20.9775C20.0046 20.6036 20.6012 20.0069 20.9751 19.2731C21.214 18.8042 21.3109 18.3021 21.3563 17.7462C21.4002 17.2092 21.4002 16.5483 21.4002 15.7403V10.4008H10.3999V21.4025Z" fill="#505866"/>
</svg>
