<svg width="24" height="24" viewBox="0 0 24 24" fill="none" xmlns="http://www.w3.org/2000/svg">
<path d="M11.3638 7.11987C11.7152 6.7684 12.2851 6.7684 12.6365 7.11987L13.5204 8.00375C13.8719 8.35523 13.8719 8.92507 13.5204 9.27655C13.169 9.62802 12.5991 9.62802 12.2476 9.27655L11.3638 8.39266C11.0123 8.04119 11.0123 7.47134 11.3638 7.11987Z" fill="#505866"/>
<path d="M14.7225 10.4786C15.074 10.1272 15.6438 10.1272 15.9953 10.4786L16.8792 11.3625C17.2307 11.714 17.2307 12.2838 16.8792 12.6353C16.5277 12.9868 15.9579 12.9868 15.6064 12.6353L14.7225 11.7514C14.371 11.3999 14.371 10.8301 14.7225 10.4786Z" fill="#505866"/>
<path fill-rule="evenodd" clip-rule="evenodd" d="M3.94789 9.58598C3.37652 10.1573 2.9092 10.6246 2.56047 11.0354C2.19949 11.4606 1.91298 11.8842 1.75036 12.3847C1.49585 13.168 1.49585 14.0117 1.75036 14.795C2.01842 15.62 2.65259 16.2888 3.48771 17.132C3.76539 17.4124 4.19333 17.4792 4.54324 17.2968C5.14707 16.982 5.90855 17.0796 6.41399 17.5851C6.91942 18.0905 7.0171 18.852 6.70229 19.4558C6.51986 19.8057 6.58665 20.2337 6.86702 20.5113C7.71025 21.3465 8.37905 21.9806 9.20406 22.2487C9.98735 22.5032 10.8311 22.5032 11.6144 22.2487C12.1149 22.0861 12.5384 21.7996 12.9636 21.4386C13.3744 21.0898 13.8417 20.6226 14.4131 20.0512L20.0525 14.4117C20.6239 13.8403 21.0912 13.373 21.44 12.9622C21.8009 12.537 22.0875 12.1135 22.2501 11.613C22.5046 10.8297 22.5046 9.98598 22.2501 9.20269C21.982 8.3777 21.3479 7.7089 20.5128 6.8657C20.2351 6.5853 19.8071 6.51853 19.4572 6.70101C18.8533 7.01592 18.0917 6.91826 17.5863 6.41279C17.0808 5.90731 16.9831 5.14575 17.298 4.5419C17.4805 4.19197 17.4138 3.76399 17.1334 3.48628C16.2902 2.65119 15.6214 2.01704 14.7964 1.74899C14.0131 1.49448 13.1693 1.49448 12.386 1.74899C11.8855 1.9116 11.462 2.19812 11.0368 2.55909C10.626 2.90783 10.1587 3.37512 9.58739 3.94649L3.94789 9.58598ZM3.58828 12.6364C3.72297 12.3721 3.98379 12.0955 4.823 11.2563L11.2577 4.82166C12.0969 3.98245 12.3734 3.72163 12.6377 3.58694C13.2367 3.28176 13.9455 3.28176 14.5445 3.58694C14.7485 3.69091 14.9627 3.87217 15.4478 4.34803C15.1214 5.49532 15.409 6.7811 16.3134 7.68553C17.2178 8.58996 18.5036 8.87756 19.6509 8.55113C20.1268 9.0362 20.308 9.25038 20.412 9.45442C20.7172 10.0534 20.7172 10.7622 20.412 11.3612C20.2773 11.6255 20.0165 11.902 19.1773 12.7413L12.7426 19.1759C11.9034 20.0151 11.6269 20.276 11.3625 20.4106C10.7636 20.7158 10.0547 20.7158 9.45576 20.4106C9.2517 20.3067 9.03751 20.1254 8.55238 19.6495C8.87868 18.5022 8.59106 17.2166 7.6867 16.3122C6.78233 15.4079 5.49669 15.1202 4.34946 15.4466C3.87354 14.9614 3.69225 14.7472 3.58828 14.5432C3.2831 13.9442 3.2831 13.2354 3.58828 12.6364Z" fill="#505866"/>
</svg>
