<svg width="24" height="24" viewBox="0 0 24 24" fill="none" xmlns="http://www.w3.org/2000/svg">
<path d="M9.99995 10.6005C10.497 10.6005 10.8999 11.0035 10.8999 11.5005V16.5005C10.8999 16.9976 10.497 17.4005 9.99995 17.4005C9.50289 17.4005 9.09995 16.9976 9.09995 16.5005V11.5005C9.09995 11.0035 9.50289 10.6005 9.99995 10.6005Z" fill="#505866"/>
<path d="M13.9999 10.6005C14.497 10.6005 14.8999 11.0035 14.8999 11.5005V16.5005C14.8999 16.9976 14.497 17.4005 13.9999 17.4005C13.5029 17.4005 13.0999 16.9976 13.0999 16.5005V11.5005C13.0999 11.0035 13.5029 10.6005 13.9999 10.6005Z" fill="#505866"/>
<path fill-rule="evenodd" clip-rule="evenodd" d="M19.9999 5.8509H16.3998C16.3997 5.3502 16.3985 4.92168 16.3695 4.56712C16.3377 4.17796 16.2681 3.79937 16.0837 3.43743C15.8057 2.89176 15.362 2.44812 14.8164 2.17009C14.4544 1.98567 14.0758 1.91604 13.6867 1.88424C13.3163 1.85398 12.8651 1.85399 12.3353 1.854H11.6644C11.1346 1.85399 10.6833 1.85398 10.3129 1.88424C9.92375 1.91604 9.54516 1.98567 9.18323 2.17009C8.63756 2.44812 8.19392 2.89176 7.91589 3.43743C7.73147 3.79937 7.66184 4.17796 7.63004 4.56712C7.60108 4.92168 7.59985 5.3502 7.59981 5.8509H3.99996C3.5029 5.8509 3.09996 6.25384 3.09996 6.7509C3.09996 7.24796 3.5029 7.6509 3.99996 7.6509H4.59986L4.59986 18.0873C4.59984 18.6171 4.59983 19.0683 4.6301 19.4388C4.66189 19.8279 4.73152 20.2065 4.91594 20.5684C5.19397 21.1141 5.63761 21.5578 6.18328 21.8358C6.54521 22.0202 6.9238 22.0898 7.31296 22.1216C7.68337 22.1519 8.13451 22.1519 8.66433 22.1519H15.3352C15.865 22.1519 16.3163 22.1519 16.6867 22.1216C17.0759 22.0898 17.4545 22.0202 17.8164 21.8358C18.3621 21.5578 18.8057 21.1141 19.0837 20.5684C19.2681 20.2065 19.3378 19.8279 19.3696 19.4388C19.3998 19.0683 19.3998 18.6171 19.3998 18.0873V7.6509H19.9999C20.497 7.6509 20.8999 7.24796 20.8999 6.7509C20.8999 6.25384 20.497 5.8509 19.9999 5.8509ZM14.6001 5.8509H9.40015V5.54488C9.40015 4.73032 9.41125 4.53649 9.45399 4.40497C9.5628 4.07008 9.82535 3.80753 10.1602 3.69872C10.2918 3.65599 10.4856 3.64489 11.3001 3.64489H12.7001C13.5147 3.64489 13.7085 3.65599 13.8401 3.69872C14.1749 3.80753 14.4375 4.07008 14.5463 4.40497C14.589 4.53649 14.6001 4.73032 14.6001 5.54489V5.8509ZM6.40018 18.4455V7.6509H17.6001V18.4455C17.6001 19.26 17.589 19.4539 17.5463 19.5854C17.4375 19.9203 17.175 20.1828 16.8401 20.2916C16.7085 20.3344 16.5147 20.3455 15.7002 20.3455H8.30018C7.48562 20.3455 7.29178 20.3344 7.16026 20.2916C6.82538 20.1828 6.56283 19.9203 6.45402 19.5854C6.41128 19.4539 6.40018 19.26 6.40018 18.4455Z" fill="#505866"/>
</svg>
