<svg width="24" height="24" viewBox="0 0 24 24" fill="none" xmlns="http://www.w3.org/2000/svg">
<path fill-rule="evenodd" clip-rule="evenodd" d="M10.8203 3.10033C11.5712 2.76604 12.4286 2.76604 13.1794 3.10033C13.7027 3.33333 14.0805 3.76043 14.4089 4.22516C14.7344 4.68589 15.0925 5.30622 15.5282 6.06096L20.6391 14.9133C21.0749 15.668 21.433 16.2883 21.6693 16.8006C21.9076 17.3173 22.0885 17.858 22.0287 18.4277C21.9427 19.2451 21.514 19.9877 20.8491 20.4708C20.3857 20.8075 19.8269 20.9211 19.2603 20.9731C18.6985 21.0246 17.9822 21.0246 17.1107 21.0246H6.88901C6.01752 21.0246 5.30122 21.0246 4.73946 20.9731C4.17283 20.9211 3.61404 20.8075 3.1506 20.4708C2.48568 19.9877 2.05697 19.2451 1.97106 18.4277C1.91118 17.858 2.09216 17.3173 2.33046 16.8006C2.56671 16.2883 2.92486 15.668 3.36062 14.9132L8.47147 6.06097C8.90721 5.30622 9.26534 4.68589 9.59085 4.22516C9.91919 3.76043 10.297 3.33333 10.8203 3.10033ZM12.9525 5.19963C12.5291 4.4663 11.4706 4.4663 11.0472 5.19963L3.90253 17.5746C3.47914 18.308 4.00838 19.2246 4.85516 19.2246H19.1445C19.9913 19.2246 20.5206 18.308 20.0972 17.5746L12.9525 5.19963Z" fill="#505866"/>
</svg>
