<svg width="24" height="24" viewBox="0 0 24 24" fill="none" xmlns="http://www.w3.org/2000/svg">
<path d="M1.59967 12.5001C1.59967 6.75634 6.25591 2.1001 11.9997 2.1001C17.7434 2.1001 22.3997 6.75634 22.3997 12.5001C22.3997 12.6577 22.3962 12.8146 22.3892 12.9706C22.3743 13.3059 22.174 13.605 21.8697 13.7465C21.5654 13.8881 21.2076 13.8486 20.9415 13.644C20.3344 13.1772 19.5756 12.9001 18.7496 12.9001C17.8415 12.9001 17.0139 13.2352 16.3802 13.7897C16.078 14.0542 15.6373 14.0865 15.2998 13.8689C14.5879 13.4099 13.7745 13.0951 12.8996 12.9659V19.2505C12.8996 20.9902 11.4893 22.4005 9.74963 22.4005C8.00994 22.4005 6.59963 20.9902 6.59963 19.2505C6.59963 18.7534 7.00258 18.3505 7.49963 18.3505C7.99669 18.3505 8.39963 18.7534 8.39963 19.2505C8.39963 19.9961 9.00405 20.6005 9.74963 20.6005C10.4952 20.6005 11.0996 19.9961 11.0996 19.2505V12.9659C10.2248 13.0951 9.41143 13.4099 8.69948 13.8689C8.36202 14.0864 7.92127 14.0542 7.61912 13.7897C6.98543 13.2352 6.15778 12.9001 5.24965 12.9001C4.42365 12.9001 3.66493 13.1772 3.05781 13.644C2.79175 13.8485 2.43396 13.8881 2.12966 13.7465C1.82535 13.605 1.62509 13.3058 1.61014 12.9706C1.60318 12.8145 1.59967 12.6577 1.59967 12.5001Z" fill="#505866"/>
</svg>
