<svg width="24" height="24" viewBox="0 0 24 24" fill="none" xmlns="http://www.w3.org/2000/svg">
<path d="M10.0259 2.42725C11.1116 1.32522 12.8895 1.3252 13.9751 2.42725L15.0874 3.55713C15.2719 3.74436 15.5249 3.84914 15.7876 3.84717L17.3736 3.83545C18.9205 3.82395 20.177 5.08057 20.1656 6.62744L20.1538 8.21338C20.1519 8.47612 20.2569 8.72825 20.4439 8.9126L21.5738 10.0259C22.6758 11.1116 22.6757 12.8893 21.5738 13.9751L20.4439 15.0884C20.2568 15.2727 20.1521 15.5249 20.1538 15.7876L20.1656 17.3735C20.1771 18.9205 18.9205 20.1779 17.3736 20.1665L15.7876 20.1548C15.5248 20.1529 15.2719 20.2576 15.0874 20.4448L13.9751 21.5737C12.8894 22.6758 11.1116 22.6758 10.0259 21.5737L8.91263 20.4438C8.72838 20.2569 8.47599 20.153 8.21341 20.1548L6.62747 20.1665C5.08049 20.178 3.82292 18.9206 3.8345 17.3735L3.84622 15.7876C3.84808 15.525 3.74333 15.2728 3.55618 15.0884L2.42728 13.9751C1.32516 12.8894 1.32517 11.1116 2.42728 10.0259L3.55716 8.9126C3.74408 8.7282 3.84819 8.47596 3.84622 8.21338L3.8345 6.62744C3.82299 5.08044 5.08046 3.82386 6.62747 3.83545L8.21341 3.84717C8.47604 3.84903 8.72829 3.74422 8.91263 3.55713L10.0259 2.42725ZM12.6929 3.69092C12.3122 3.30447 11.6887 3.30457 11.3081 3.69092L10.1949 4.8208C9.6689 5.35454 8.94906 5.65253 8.19974 5.64697L6.6138 5.63525C6.07148 5.63119 5.63043 6.07148 5.63431 6.61377L5.64603 8.19971C5.65164 8.94922 5.3538 9.66978 4.81985 10.1958L3.68997 11.3081C3.30361 11.6887 3.30374 12.3122 3.68997 12.6929L4.81985 13.8062C5.35372 14.3322 5.65159 15.0518 5.64603 15.8013L5.63431 17.3872C5.63025 17.9295 6.07132 18.3707 6.6138 18.3667L8.19974 18.355C8.94908 18.3495 9.66883 18.6472 10.1949 19.1812L11.3081 20.311C11.6888 20.6973 12.3123 20.6974 12.6929 20.311L13.8052 19.1812C14.3313 18.6472 15.0519 18.3494 15.8013 18.355L17.3872 18.3667C17.9295 18.3705 18.3698 17.9295 18.3658 17.3872L18.354 15.8013C18.3485 15.052 18.6464 14.3322 19.1802 13.8062L20.3101 12.6929C20.6965 12.3122 20.6965 11.6888 20.3101 11.3081L19.1802 10.1958C18.6462 9.66974 18.3485 8.94911 18.354 8.19971L18.3658 6.61377C18.3696 6.07155 17.9293 5.63139 17.3872 5.63525L15.8013 5.64697C15.0518 5.65259 14.3313 5.35373 13.8052 4.81982L12.6929 3.69092ZM13.6577 8.49951C14.1663 7.99119 14.9909 7.99137 15.4995 8.49951C16.0082 9.00812 16.009 9.83359 15.5005 10.3423L13.8423 12.0005L15.4995 13.6577C16.008 14.1662 16.0087 14.9908 15.5005 15.4995C14.9918 16.0082 14.1664 16.0082 13.6577 15.4995L11.9995 13.8423L10.3423 15.4995C9.83364 16.0082 9.00822 16.0082 8.49954 15.4995C7.99133 14.9908 7.992 14.1662 8.50052 13.6577L10.1577 12.0005L8.49954 10.3423C7.99104 9.83359 7.9919 9.00813 8.50052 8.49951C9.00918 7.9914 9.8338 7.99118 10.3423 8.49951L11.9995 10.1577L13.6577 8.49951Z" fill="#505866"/>
</svg>
