<svg width="24" height="24" viewBox="0 0 24 24" fill="none" xmlns="http://www.w3.org/2000/svg">
<path d="M10.599 2.85303C11.6847 1.75119 13.4626 1.75111 14.5482 2.85303L15.6606 3.98291C15.8451 4.17015 16.098 4.27492 16.3607 4.27295L17.9467 4.26123C19.4935 4.24975 20.75 5.50647 20.7387 7.05322L20.727 8.63916C20.725 8.90202 20.8298 9.15498 21.017 9.33936L22.1469 10.4526C23.2487 11.5384 23.2489 13.3162 22.1469 14.4019L21.017 15.5142C20.8298 15.6986 20.725 15.9515 20.727 16.2144L20.7387 17.8003C20.75 19.3471 19.4935 20.6037 17.9467 20.5923L16.3607 20.5806C16.0979 20.5786 15.845 20.6834 15.6606 20.8706L14.5482 22.0005C13.4626 23.1025 11.6848 23.1023 10.599 22.0005L9.48575 20.8706C9.30147 20.6835 9.04925 20.5788 8.78653 20.5806L7.20059 20.5923C5.65373 20.6038 4.39623 19.3472 4.40762 17.8003L4.41934 16.2144C4.42131 15.9517 4.31743 15.6987 4.13028 15.5142L3.0004 14.4019C1.89828 13.3161 1.8983 11.5384 3.0004 10.4526L4.1293 9.33936C4.31652 9.15492 4.42131 8.90196 4.41934 8.63916L4.40762 7.05322C4.39627 5.50636 5.65368 4.24965 7.20059 4.26123L8.78653 4.27295C9.04918 4.27481 9.30141 4.17003 9.48575 3.98291L10.599 2.85303ZM16.0697 8.93018C15.5611 8.42171 14.7366 8.42165 14.2279 8.93018L12.5697 10.5884L10.9125 8.93018C10.4039 8.42159 9.57839 8.4216 9.06973 8.93018C8.56135 9.43874 8.56149 10.2633 9.06973 10.772L10.7279 12.4302L9.06973 14.0884C8.56148 14.597 8.56136 15.4216 9.06973 15.9302C9.57841 16.4389 10.4038 16.4389 10.9125 15.9302L12.5697 14.2729L14.2279 15.9302C14.7366 16.4387 15.5611 16.4387 16.0697 15.9302C16.5783 15.4215 16.5783 14.597 16.0697 14.0884L14.4125 12.4302L16.0697 10.772C16.5783 10.2633 16.5784 9.43882 16.0697 8.93018Z" fill="#505866"/>
</svg>
